<?xml version="1.0" encoding="UTF-8"?>
<svg id="Capa_1" xmlns="http://www.w3.org/2000/svg" version="1.1" xmlns:xlink="http://www.w3.org/1999/xlink" viewBox="0 0 600 767.69">
  <!-- Generator: Adobe Illustrator 29.7.1, SVG Export Plug-In . SVG Version: 2.1.1 Build 8)  -->
  <defs>
    <style>
      .st0 {
        font-size: 141.66px;
        letter-spacing: -.02em;
      }

      .st1 {
        fill: #6fc7da;
      }

      .st2 {
        letter-spacing: -.03em;
      }

      .st3 {
        font-size: 275px;
        letter-spacing: -.02em;
      }

      .st3, .st4, .st5, .st6, .st7, .st8, .st9, .st10, .st11 {
        fill: #fff;
      }

      .st3, .st6, .st7 {
        font-family: BebasKai, 'Bebas Kai';
      }

      .st12 {
        letter-spacing: 0em;
      }

      .st13 {
        letter-spacing: .1em;
      }

      .st14 {
        fill: #055291;
      }

      .st15 {
        letter-spacing: -.03em;
      }

      .st16 {
        letter-spacing: .04em;
      }

      .st5 {
        fill-rule: evenodd;
      }

      .st6 {
        font-size: 81.23px;
        letter-spacing: -.02em;
      }

      .st17 {
        fill: url(#Viñeta_negra_supersuave1);
      }

      .st17, .st18 {
        fill-opacity: .45;
      }

      .st8 {
        letter-spacing: -.04em;
      }

      .st8, .st9, .st10, .st11 {
        font-family: BarlowCondensed-Medium, 'Barlow Condensed';
        font-weight: 500;
      }

      .st8, .st11 {
        font-size: 42.57px;
      }

      .st19 {
        letter-spacing: .02em;
      }

      .st20 {
        opacity: 0;
      }

      .st18 {
        fill: url(#Viñeta_negra_supersuave);
      }

      .st21 {
        letter-spacing: .04em;
      }

      .st22 {
        letter-spacing: 0em;
      }

      .st23 {
        letter-spacing: .02em;
      }

      .st9 {
        font-size: 58.55px;
        letter-spacing: -.04em;
      }

      .st24 {
        fill: none;
        stroke: #fff;
        stroke-miterlimit: 10;
        stroke-width: 2px;
      }

      .st10 {
        font-size: 48.45px;
        letter-spacing: -.04em;
      }

      .st25 {
        font-size: 167.87px;
        letter-spacing: -.02em;
      }

      .st26 {
        fill: #25336a;
        font-family: Poppins-Regular, Poppins;
        font-size: 7px;
      }

      .st27 {
        letter-spacing: 0em;
      }

      .st28 {
        letter-spacing: .1em;
      }

      .st11 {
        letter-spacing: -.04em;
      }

      .st29 {
        letter-spacing: -.01em;
      }
    </style>
    <radialGradient id="Viñeta_negra_supersuave" data-name="Viñeta negra supersuave" cx="-1416.61" cy="311.04" fx="-1416.61" fy="311.04" r="1" gradientTransform="translate(-595633.87 959806.72) rotate(91.45) scale(678.13 -1836.28) skewX(-3.8)" gradientUnits="userSpaceOnUse">
      <stop offset=".57" stop-color="#161412" stop-opacity="0"/>
      <stop offset=".8" stop-color="#161412" stop-opacity=".65"/>
      <stop offset=".83" stop-color="#161412" stop-opacity=".74"/>
      <stop offset="1" stop-color="#161412" stop-opacity=".95"/>
    </radialGradient>
    <radialGradient id="Viñeta_negra_supersuave1" data-name="Viñeta negra supersuave" cx="-1436.75" cy="302.26" fx="-1436.75" fy="302.26" r="1" gradientTransform="translate(634372.89 -1126698.3) rotate(-88.63) scale(785.35 -2007.07) skewX(-3.38)" xlink:href="#Viñeta_negra_supersuave"/>
  </defs>
  <image width="4289" height="4017" transform="translate(-2.15 -11.05) scale(.14)" xlink:href="templates/promo-bg.jpg"/>
  <image width="1829" height="1819" transform="translate(-17.22 98.26) scale(.24)" xlink:href="templates/promo-bg.jpg"/>
  <path class="st18" d="M602.06,174.56v458.51c0,30.15-137.59,54.58-307.32,54.58h0c-169.73,0-307.32-24.44-307.32-54.58V174.56c0-30.15,137.59-54.58,307.32-54.58h0c169.73,0,307.32,24.44,307.32,54.58Z"/>
  <g class="st20">
    <image width="2186" height="2119" transform="translate(-53.94 62.26) scale(.24)" xlink:href="templates/promo-bg.jpg"/>
  </g>
  <path class="st17" d="M-43.81,538.45V7.43c0-34.91,150.39-63.22,335.89-63.22h0c185.51,0,335.9,28.3,335.9,63.22v531.03c0,34.91-150.39,63.22-335.89,63.22h0c-185.51,0-335.9-28.3-335.9-63.22Z"/>
  <g>
    <g>
      <path class="st5" d="M379.61,49.41c1.15,0,2.82-.78,4.28-1.62v-2.61c-1.15.89-1.46.89-1.78.89-.52,0-.84-.31-.84-.89v-6.79c0-3.13-2.56-4.23-5.95-4.23-.16,0-.31.05-.47.05-2.35.05-4.23.57-6.01,1.62v3.66c1.36-1.41,3.61-2.25,5.33-2.25.26,0,.47.05.68.05,1.46.21,1.93.99,1.93,2.19-.68.26-1.3.47-1.93.68-4.65,1.52-6.64,2.3-6.64,5.28,0,2.04,1.73,3.97,4.02,3.97.89,0,1.78-.21,2.61-.63.73-.37,1.41-.78,2.2-1.31.31,1.15,1.15,1.93,2.56,1.93ZM376.79,45.44c-.68.47-1.25.73-1.93.84-.21.05-.47.05-.68.05-.84,0-1.41-.58-1.41-1.41,0-.99.73-1.57,2.09-2.25.57-.26,1.2-.52,1.93-.83v3.61Z"/>
      <rect class="st4" x="384.99" y="27.31" width="4.5" height="21.58"/>
      <path class="st5" d="M347.79,42.67c1.15-2.82,2.25-4.28,3.76-4.28.78,0,1.62.26,2.77,1.1l1.15-4.23c-1.15-.89-1.99-1.1-2.82-1.1-1.72,0-3.4,1.46-4.86,4.23v-4.02h-4.55v14.53h4.55v-6.22Z"/>
      <path class="st5" d="M363.1,44.92c0,.84-.83,1.15-2.25,1.15-1.67,0-3.4-.63-4.81-1.15v3.08c.52.31,2.82,1.41,5.38,1.41,3.71,0,5.75-1.93,5.75-5.07,0-4.86-7.16-4.86-7.16-6.58,0-.78,1.1-1.05,1.67-1.05.84,0,2.82.52,4.81,1.67v-3.13c-1.36-.89-2.77-1.1-4.81-1.1-3.39,0-5.96,1.68-5.96,4.5,0,4.6,7.37,4.29,7.37,6.27Z"/>
      <path class="st5" d="M274.26,49.41c2.04,0,3.45-.78,4.91-2.46v1.93h4.5v-14.53h-4.5v9.14c-.68,1.41-1.78,2.56-3.19,2.56-1.15,0-2.35-.63-2.35-2.82v-8.88h-4.44v9.35c0,3.76,2.25,5.7,5.07,5.7Z"/>
      <path class="st5" d="M333.99,49.41h.47c1.1,0,3.66,0,6.48-2.25v-2.82c-2.25,1.73-3.66,1.99-5.38,1.99-.57,0-1.1-.05-1.57-.16-1.93-.42-3.19-1.72-3.19-3.81h10.14c.26-5.17-2.93-7.99-6.95-8.15-.1,0-.21-.05-.31-.05-4.55,0-7.68,3.09-7.68,7.68s3.19,7.42,7.99,7.58ZM333.89,36.71c.05,0,.1.05.1.05,1.62.05,3.08,1.41,3.08,3.34h-6.27c.21-2.35,1.36-3.4,3.08-3.4Z"/>
      <path class="st5" d="M301.28,48.89v-9.41c0-4.23-3.14-5.33-5.38-5.33-1.72,0-3.19.52-4.55,2.25v-2.04h-4.55v14.53h4.55v-9.41c1.1-1.72,1.93-2.25,3.08-2.25,1.46,0,2.25.84,2.25,2.87v8.78h4.6Z"/>
      <rect class="st4" x="304.36" y="34.36" width="4.55" height="14.53"/>
      <path class="st5" d="M306.61,26.99c-1.41,0-2.51,1.15-2.51,2.61s1.1,2.61,2.51,2.61,2.61-1.2,2.61-2.61-1.15-2.61-2.61-2.61Z"/>
      <polygon class="st5" points="326 34.36 321.08 34.36 318 42.35 314.86 34.36 310.06 34.36 316.85 49.41 319.41 49.41 326 34.36"/>
      <path class="st5" d="M398.58,68.32c-1.93-.42-3.19-1.83-3.29-3.92h10.4c.21-5.17-3.03-8.15-7.11-8.31-.1,0-.26-.05-.36-.05-4.44,0-7.68,3.24-7.68,7.63s3.14,7.42,8.05,7.52h.37c1.2,0,3.87,0,6.53-1.93v-2.87c-2.14,1.56-3.6,2.09-5.38,2.09-.57,0-1.05-.05-1.52-.16ZM398.52,58.76l.05.05c1.67,0,2.87,1.26,3.14,3.19h-6.38c.21-2.04,1.36-3.24,3.19-3.24Z"/>
      <path class="st5" d="M355.21,67.12v-6.64c0-3.19-2.51-4.44-6.22-4.44-.16,0-.26.05-.36.05-2.09.05-4.08.68-5.85,1.73v3.76c1.41-1.47,3.5-2.4,5.33-2.4.16,0,.37.05.52.05,1.52.21,2.04,1.1,2.04,2.35-.73.26-1.41.47-2.04.63-4.65,1.47-6.64,2.41-6.64,5.43,0,1.83,1.72,3.55,4.08,3.55.89,0,1.72-.1,2.56-.47.68-.26,1.36-.63,2.14-1.15.36,1.15,1.15,1.62,2.67,1.62,1.15,0,3.03-.52,4.28-1.3v-2.56c-1.15.73-1.52.83-1.78.83-.42,0-.73-.37-.73-1.05ZM350.66,67.33c-.68.57-1.36.99-2.04,1.1-.16.05-.37.05-.52.05-.78,0-1.51-.73-1.51-1.57,0-.99.63-1.62,2.04-2.25.57-.21,1.25-.47,2.04-.73v3.4Z"/>
      <path class="st5" d="M368.06,56.05c-1.88,0-3.24.73-4.7,2.4v-2.09h-4.6v14.58h4.6v-9.41c1.1-1.83,2.09-2.35,3.13-2.35,1.36,0,2.3.84,2.3,2.87v8.89h4.55v-9.3c0-4.28-3.03-5.59-5.28-5.59Z"/>
      <path class="st5" d="M380.55,63.62c0-2.51,1.83-4.18,4.49-4.18,1.15,0,2.56.31,3.76.99v-3.4c-1.46-.57-3.4-.99-4.86-.99-4.86,0-8.26,3.24-8.26,7.63s3.29,7.52,8.41,7.52c1.52,0,3.03-.31,4.91-.99v-3.29c-2.04.78-2.98,1.04-4.08,1.04-2.66,0-4.39-1.78-4.39-4.34Z"/>
      <path class="st5" d="M281.73,67.12v-6.64c0-3.19-2.56-4.44-6.11-4.44-.16,0-.26.05-.37.05-2.19.05-4.18.63-5.95,1.73v3.76c1.46-1.47,3.5-2.4,5.33-2.4.21,0,.47.05.62.05,1.46.21,1.94,1.15,1.94,2.35-.68.21-1.31.42-1.94.63-4.7,1.47-6.74,2.41-6.74,5.43,0,1.83,1.78,3.55,4.13,3.55.83,0,1.72-.16,2.61-.47.68-.26,1.36-.63,2.14-1.15.31,1.15.99,1.62,2.56,1.62,1.2,0,3.03-.52,4.28-1.3v-2.56c-1.1.73-1.46.83-1.72.83-.42,0-.79-.37-.79-1.05ZM277.19,67.33c-.63.57-1.26.94-1.94,1.1-.21.05-.42.05-.62.05-.79,0-1.46-.73-1.46-1.57,0-.99.68-1.67,2.09-2.25.58-.26,1.2-.47,1.94-.73v3.4Z"/>
      <path class="st5" d="M288.79,59.91c0-1,1.05-1.15,1.67-1.15.94,0,2.82.42,4.81,1.62v-3.19c-1.46-.84-2.82-1.15-4.7-1.15-3.55,0-5.96,1.78-5.96,4.55,0,4.76,7.21,4.29,7.21,6.48,0,.63-.89,1.1-2.19,1.1-1.78,0-3.29-.63-4.7-1.25v3.19c.57.36,2.82,1.1,5.17,1.1,3.76,0,5.96-1.67,5.96-4.75,0-4.86-7.26-4.91-7.26-6.53Z"/>
      <path class="st5" d="M301.38,59.91c0-1,1.05-1.15,1.72-1.15.89,0,2.77.42,4.86,1.62v-3.19c-1.52-.84-2.93-1.15-4.76-1.15-3.55,0-5.96,1.78-5.96,4.55,0,4.76,7.16,4.29,7.16,6.48,0,.63-.84,1.1-2.2,1.1-1.78,0-3.19-.63-4.65-1.25v3.19c.63.36,2.82,1.1,5.22,1.1,3.76,0,5.85-1.67,5.85-4.75,0-4.86-7.26-4.91-7.26-6.53Z"/>
      <rect class="st4" x="310.68" y="56.36" width="4.49" height="14.58"/>
      <path class="st5" d="M312.93,49.15c-1.41,0-2.56,1.05-2.56,2.51,0,1.36,1.15,2.46,2.56,2.46s2.56-1.1,2.56-2.46c0-1.46-1.2-2.51-2.56-2.51Z"/>
      <path class="st5" d="M321.76,59.91c0-1,.99-1.15,1.62-1.15.99,0,2.93.42,4.81,1.62v-3.19c-1.41-.84-2.82-1.15-4.7-1.15-3.55,0-5.96,1.78-5.96,4.55,0,4.76,7.21,4.29,7.21,6.48,0,.63-.84,1.1-2.14,1.1-1.83,0-3.34-.63-4.76-1.25v3.19c.63.36,2.82,1.1,5.17,1.1,3.76,0,6.01-1.67,6.01-4.75,0-4.86-7.26-4.91-7.26-6.53Z"/>
      <path class="st5" d="M336.03,51.76h-.57l-6.06,6.79v.89h2.09v6.32c0,4.08,2.56,5.44,5.65,5.44,1.41,0,2.56-.21,4.18-.89v-3.4c-1.2.73-2.09.89-3.03.89-1.46,0-2.25-.89-2.25-2.3v-6.06h5.28v-3.09h-5.28v-4.6Z"/>
      <path class="st5" d="M212.98,30.2l.03-11.11h-21.46v32.54c.43-7.82.55-14.68,21.43-21.43Z"/>
      <path class="st5" d="M251.67,49.63v-30.54h-21.49v6.66c-3.21,1.08-6.19,2.03-8.95,2.92-20.83,6.8-29.7,9.93-29.7,24.17,0,9.06,7.74,18.38,18.09,18.38,4.11,0,7.85-1.08,11.61-2.87,3.37-1.58,6.74-3.74,10.43-6.21,1.32,5.21,5.19,9,11.67,9.08,4.06.05,10.56-.32,14.8-2.19l2.13-12.95c-4.29,0-8.58-2.13-8.58-6.45ZM230.18,52.85c-3.06,2.05-5.95,3.42-8.95,3.92-.84.16-1.69.21-2.53.21-3.87,0-6.48-2.61-6.48-6.5,0-4.53,3.11-7.16,9.01-10.14,2.5-1.26,5.48-2.58,8.95-4.13v16.64Z"/>
    </g>
    <g>
      <path class="st4" d="M316.87,89.66c-6.75,0-12.22,5.47-12.22,12.22h0c0,2.79.93,5.36,2.5,7.41l10.16-13.35h-1.09s-1.09,0-1.09,0c-1.16,0-2.25.08-3.03.23-.48.1-.9.26-1.25.51-.41.29-.91.89-1.25,1.48-.04.07-.1.17-.16.32l-.59-.13,1-3.84h12.73l-10.12,13.53c.66-.06.92-.07,1.45-.07.41,0,1.03.03,1.87.07l1.8.11c.65.04,1.19.06,1.61.06.93,0,1.53-.07,2.13-.26.46-.14.9-.36,1.31-.63.71-.49,1.4-1.28,1.81-2.07.04-.08.11-.2.18-.36l.54.14c-.18.67-.27.93-.54,1.53-.54,1.21-1.16,2.03-2,2.65-.87.64-1.83.96-2.96.97h-.17c-.84,0-1.49-.07-3.5-.38-2.04-.32-3.09-.42-4.12-.42-.69,0-1.33.05-1.99.16-.88.14-1.22.24-2.02.6,2.23,2.43,5.44,3.97,9.01,3.97,6.75,0,12.23-5.47,12.23-12.23s-5.48-12.23-12.23-12.23"/>
      <path class="st4" d="M379.82,98.15c0-.8.02-1.01.13-1.34.04-.13.1-.26.17-.37.12-.2.21-.3.45-.5h-3.82c.25.21.33.3.44.47.08.12.14.25.19.39.09.29.12.58.13,1.28v7.85c0,.42-.07.87-.19,1.16-.05.12-.11.24-.19.35-.09.13-.15.2-.36.42h3.78c-.19-.16-.25-.23-.37-.42-.08-.12-.14-.24-.19-.36-.1-.27-.16-.67-.16-1.04v-7.88Z"/>
      <path class="st4" d="M405.27,98.14c0-.53.04-.93.13-1.26.04-.15.11-.3.19-.44.12-.2.22-.3.47-.5h-3.89c.23.19.3.27.43.48.09.14.15.28.2.42.09.28.13.63.13,1.25v2.89h-5.33v-2.17c0-.66,0-1.09.03-1.41.02-.19.05-.37.1-.52.08-.26.3-.61.49-.81.03-.03.07-.07.13-.13h-3.82c.23.23.29.31.39.46.08.12.16.26.2.4.1.3.12.47.13,1.26v.75s.01,6.52.01,6.52c0,.66-.01.95-.05,1.26-.02.15-.06.31-.12.47-.1.26-.24.46-.46.67-.03.03-.07.06-.13.12h3.77c-.16-.17-.22-.24-.32-.39-.07-.11-.14-.24-.19-.37-.12-.32-.16-.54-.18-1.04,0-.25,0-.49,0-.71v-2.89h5.33v2.91c0,.64,0,.88-.05,1.21-.02.18-.06.36-.13.52-.09.22-.22.42-.43.62-.04.03-.09.08-.16.15h3.81c-.16-.16-.22-.22-.32-.37-.1-.13-.17-.26-.22-.39-.12-.28-.14-.49-.16-1.08,0-.35,0-.55,0-.62v-6.55s0-.7,0-.7Z"/>
      <path class="st4" d="M374.84,107.03c-.42-.4-.79-.78-1.35-1.39-.36-.38-.64-.71-.87-.97l-1.85-2.18c.23-.07.32-.1.53-.18.6-.24,1.06-.5,1.47-.85.47-.4.76-.82.94-1.36.1-.3.15-.61.15-.92,0-.73-.27-1.4-.8-1.95-.49-.52-1.17-.89-1.94-1.07-.53-.12-1.09-.18-2.03-.21-.36,0-.73-.01-1.11-.01h-3.07c.21.19.28.28.4.45.09.14.16.28.21.43.08.27.11.64.11,1.27v7.82c0,.56-.04.89-.13,1.15-.05.13-.12.26-.2.38-.11.14-.18.21-.4.41h3.79c-.17-.18-.23-.24-.33-.39-.08-.11-.15-.24-.2-.36-.1-.26-.15-.55-.15-1.1,0-.18,0-.38,0-.6v-2.68l2.21,2.65c.1.13.27.32.49.58.26.29.45.51.58.64.42.44.83.76,1.23.98.35.18.67.26,1.18.28.19,0,.4,0,.62,0h1.49c-.2-.16-.28-.23-.44-.36-.16-.14-.33-.29-.51-.47M370.29,101.19c-.42.25-.86.39-1.5.48-.24.04-.45.06-.62.06-.06,0-.1,0-.2,0v-4.41c.15,0,.21,0,.31,0,.58,0,1.15.07,1.6.19.3.09.58.24.81.43.4.34.61.84.61,1.46,0,.54-.16,1-.46,1.34-.15.17-.33.32-.56.45"/>
      <path class="st4" d="M391.24,106.13c-.72.3-1.37.44-2.08.44-1.23,0-2.29-.44-3.07-1.28-.77-.84-1.19-1.99-1.19-3.3s.39-2.41,1.07-3.21c.3-.35.66-.65,1.08-.88.67-.38,1.46-.57,2.31-.57.72,0,1.43.14,2.14.43.44.18.6.27.98.54v-2.24c-.29-.09-.41-.13-.72-.19-.69-.14-1.35-.21-2.1-.21-1.28,0-2.39.21-3.39.63-.6.25-1.15.58-1.64.97-1.47,1.18-2.27,2.89-2.27,4.87s.77,3.57,2.17,4.68c1.16.92,2.65,1.38,4.45,1.38,1.12,0,2.17-.17,3.34-.53.05-.01.11-.03.2-.06v-2.16c-.29.19-.38.25-.55.35-.23.13-.47.26-.73.36"/>
      <path class="st4" d="M359.58,96.41c.07.13.14.26.18.4.08.29.1.58.1,1.25v4.53c0,.97-.03,1.55-.1,2.02-.05.32-.15.61-.31.87-.29.48-.83.86-1.46,1.02-.26.06-.54.1-.85.1-1.02,0-1.9-.38-2.32-1.01-.33-.48-.42-.95-.43-2.17v-.98s0-3.59,0-3.59c0-.7,0-1.03.03-1.38.01-.21.04-.4.09-.55.08-.28.29-.64.48-.86.03-.03.06-.06.1-.11h-3.87c.24.2.32.29.43.48.08.13.13.27.17.41.05.18.07.36.08.55,0,.12,0,.36,0,.74v.69s0,3.41,0,3.41c0,1.27,0,1.59.05,2.1.07.87.33,1.56.83,2.2.9,1.13,2.35,1.73,4.2,1.73.88,0,1.74-.13,2.39-.38.69-.25,1.32-.68,1.77-1.18.55-.62.87-1.38.96-2.32.06-.54.08-1.19.08-2.13v-4.11s0-.13,0-.13c0-.51.03-.81.1-1.09.04-.17.11-.33.21-.48.13-.2.22-.3.47-.5h-3.8c.23.18.31.27.43.46"/>
      <path class="st4" d="M346.52,106.18c-.53.1-1.13.15-1.87.17-.25,0-.56,0-.95,0h-1.83l7.22-10.41h-9.37l-1.15,2.54c.39-.2.54-.28.87-.41.53-.21,1.12-.38,1.68-.48.49-.09.95-.13,1.68-.15.33-.01.64-.02.93-.02h1.39l-7.29,10.42h10.3l1.19-2.71c-.41.24-.56.31-.87.46-.6.27-1.25.47-1.93.58"/>
      <path class="st4" d="M409.2,91.46c-.75,0-1.35.55-1.35,1.35s.6,1.34,1.35,1.34,1.35-.54,1.35-1.34-.6-1.35-1.35-1.35M409.2,93.95c-.63,0-1.13-.47-1.13-1.15s.5-1.16,1.13-1.16,1.13.46,1.13,1.16-.48,1.15-1.13,1.15"/>
      <path class="st4" d="M409.8,92.48c0-.37-.26-.43-.67-.43h-.43v1.43h.21v-.56h.37s.03,0,.04,0l.3.56h.24l-.32-.61c.18-.07.27-.23.27-.39M409.23,92.71h-.32v-.45h.3c.21,0,.36.04.36.23,0,.16-.1.23-.34.23"/>
      <path class="st4" d="M192.01,107.85l4.64-11.74h1.17l4.64,11.74h-1.15l-1.27-3.35h-5.6l-1.32,3.35h-1.1ZM194.81,103.51h4.8l-2.4-6.19-2.4,6.19Z"/>
      <path class="st4" d="M211.58,108.12c-.79,0-1.49-.19-2.09-.57-.61-.38-1.08-.91-1.41-1.58-.33-.68-.5-1.45-.5-2.3s.16-1.62.49-2.29c.33-.67.79-1.2,1.4-1.58.61-.38,1.3-.58,2.09-.58.65,0,1.23.13,1.74.39.52.26.94.63,1.25,1.1.32.47.52,1.03.59,1.66h-1.08c-.11-.68-.38-1.22-.82-1.62-.43-.4-1-.6-1.68-.6-.6,0-1.12.15-1.56.46-.44.31-.78.72-1.01,1.26-.23.53-.35,1.13-.35,1.8s.11,1.27.34,1.8c.23.53.56.95,1.01,1.26.45.31.97.46,1.58.46.67,0,1.22-.19,1.66-.56.44-.37.71-.87.83-1.48h1.08c-.09.59-.29,1.11-.61,1.56-.32.45-.73.8-1.23,1.04-.51.24-1.08.37-1.73.37"/>
      <path class="st4" d="M220.58,108.12c-.79,0-1.49-.19-2.09-.56-.61-.37-1.08-.9-1.42-1.57-.34-.67-.51-1.45-.51-2.33s.17-1.64.51-2.31c.34-.67.81-1.2,1.42-1.58.61-.38,1.3-.57,2.09-.57s1.47.19,2.07.57c.6.38,1.07.9,1.4,1.58.33.67.5,1.44.5,2.31s-.17,1.64-.5,2.32c-.33.68-.8,1.2-1.4,1.58-.6.37-1.29.56-2.07.56M220.58,107.18c.59,0,1.1-.14,1.53-.42.43-.29.77-.69,1-1.21.23-.52.35-1.15.35-1.88s-.12-1.35-.35-1.88c-.23-.53-.57-.93-1-1.22-.43-.28-.94-.43-1.53-.43s-1.14.14-1.58.43c-.44.28-.78.69-1.02,1.22-.24.53-.36,1.16-.36,1.88s.12,1.35.36,1.88c.24.53.58.93,1.02,1.22.44.28.96.42,1.58.42"/>
      <path class="st4" d="M226.61,107.85v-8.37h1.03v1.17c.24-.45.58-.8.99-1.05.42-.26.9-.39,1.44-.39.61,0,1.13.15,1.54.43.42.29.71.7.89,1.22.24-.51.58-.91,1.03-1.21.44-.29.97-.44,1.58-.44.82,0,1.46.23,1.91.7.45.47.68,1.17.68,2.1v5.84h-1.03v-5.6c0-.71-.15-1.24-.44-1.58-.29-.35-.74-.52-1.32-.52-.43,0-.82.11-1.15.33-.33.22-.6.55-.78.97-.19.42-.28.93-.28,1.53v4.87h-1.05v-5.6c0-.7-.15-1.23-.43-1.58-.29-.35-.73-.52-1.33-.52-.42,0-.8.11-1.13.33-.33.22-.6.54-.79.96-.19.42-.29.93-.29,1.54v4.87h-1.03Z"/>
      <path class="st4" d="M240.2,111.02v-11.54h1.03v1.52c.33-.56.76-.99,1.29-1.31.53-.32,1.12-.48,1.78-.48.75,0,1.42.19,2.01.58.58.38,1.04.91,1.37,1.58.33.67.49,1.44.49,2.29s-.16,1.64-.49,2.31c-.33.67-.78,1.2-1.37,1.58-.58.38-1.26.57-2.01.57-.66,0-1.25-.16-1.78-.48-.53-.32-.96-.75-1.29-1.31v4.69h-1.03ZM244.15,107.18c.58,0,1.09-.14,1.53-.42.45-.29.79-.69,1.04-1.23.24-.53.37-1.16.37-1.87,0-1.08-.27-1.94-.8-2.57-.53-.63-1.25-.95-2.13-.95s-1.6.32-2.13.95c-.53.63-.79,1.49-.79,2.57,0,.71.12,1.33.37,1.87.24.53.59.94,1.03,1.23.44.28.95.42,1.53.42"/>
      <path class="st4" d="M252.54,108.08c-.91,0-1.62-.23-2.12-.68-.5-.45-.75-1.03-.75-1.72,0-.76.26-1.33.78-1.74.52-.4,1.19-.66,2-.79s1.8-.19,2.95-.19v-.88c0-.57-.2-1.03-.6-1.39-.4-.36-.96-.54-1.67-.54s-1.21.17-1.59.51c-.38.34-.6.8-.64,1.38h-1.07c.04-.61.22-1.13.52-1.55.3-.42.7-.74,1.19-.95.5-.21,1.05-.32,1.66-.32.67,0,1.24.12,1.73.36.48.24.86.57,1.12,1,.26.43.39.93.39,1.51v5.77h-1.04v-1.52c-.28.56-.66.99-1.14,1.29-.48.31-1.06.46-1.73.46M252.71,107.18c.56,0,1.03-.13,1.43-.4.4-.27.71-.63.94-1.09.22-.46.33-.97.33-1.54v-.33c-.96,0-1.76.03-2.41.11-.65.07-1.19.25-1.62.52-.43.27-.64.67-.64,1.19,0,.49.18.87.55,1.14.37.27.84.41,1.42.41"/>
      <path class="st4" d="M258.95,107.85v-8.37h1.03v1.33c.3-.49.69-.88,1.18-1.17.49-.29,1.06-.43,1.7-.43.94,0,1.66.3,2.19.89.52.59.78,1.41.78,2.44v5.3h-1.05v-5.12c0-.86-.18-1.5-.52-1.94-.35-.43-.89-.65-1.61-.65-.51,0-.97.14-1.38.41-.41.27-.72.66-.95,1.16-.23.5-.34,1.08-.34,1.75v4.39h-1.03Z"/>
      <path class="st4" d="M267.84,111.02v-.94h.83c.32,0,.58-.06.78-.2.19-.13.35-.36.48-.68l.55-1.37-3.4-8.36h1.1l2.82,7.07,2.8-7.07h1.1l-3.99,9.92c-.23.55-.52.96-.87,1.23-.35.26-.8.39-1.37.39h-.83Z"/>
      <path class="st4" d="M283.82,108.12c-.79,0-1.49-.19-2.09-.56-.61-.37-1.08-.9-1.42-1.57-.34-.67-.51-1.45-.51-2.33s.17-1.64.51-2.31c.34-.67.81-1.2,1.42-1.58.61-.38,1.3-.57,2.09-.57s1.47.19,2.07.57c.6.38,1.07.9,1.4,1.58.33.67.5,1.44.5,2.31s-.17,1.64-.5,2.32c-.33.68-.8,1.2-1.4,1.58-.6.37-1.29.56-2.07.56M283.82,107.18c.59,0,1.1-.14,1.53-.42.43-.29.77-.69,1-1.21.23-.52.35-1.15.35-1.88s-.12-1.35-.35-1.88c-.23-.53-.57-.93-1-1.22-.43-.28-.94-.43-1.53-.43s-1.14.14-1.58.43c-.44.28-.78.69-1.02,1.22-.24.53-.36,1.16-.36,1.88s.12,1.35.36,1.88c.24.53.58.93,1.02,1.22.44.28.96.42,1.58.42"/>
      <path class="st4" d="M290.36,107.85v-7.46h-1.78v-.92h1.78v-1.7c0-.61.17-1.1.5-1.47.33-.37.85-.55,1.55-.55h1.1v.94h-1.03c-.37,0-.64.09-.81.26-.17.17-.26.46-.26.86v1.67h2.1v.92h-2.1v7.46h-1.05Z"/>
    </g>
  </g>
  <rect class="st24" x="27.53" y="135.33" width="354.38" height="360.23" rx="6.85" ry="6.85"/>
  <g>
    <path class="st4" d="M33.83,524.52c-.7,0-1.27.57-1.27,1.27v6.12c0,.69.57,1.27,1.27,1.27s1.26-.57,1.26-1.27v-6.12c0-.7-.57-1.27-1.26-1.27"/>
    <path class="st4" d="M53.7,524.52c-.7,0-1.27.57-1.27,1.27v6.12c0,.69.57,1.27,1.27,1.27s1.27-.57,1.27-1.27v-6.12c0-.7-.57-1.27-1.27-1.27"/>
    <path class="st4" d="M36.23,524.52v11.35c0,1.05.85,1.9,1.9,1.9h2.03v3.22c0,.7.57,1.27,1.27,1.27s1.27-.57,1.27-1.27v-3.22h2.16v3.22c0,.7.57,1.27,1.26,1.27s1.27-.57,1.27-1.27v-3.22h2.03c1.05,0,1.9-.85,1.9-1.9v-11.3s0-.03,0-.05h-15.09Z"/>
    <path class="st4" d="M47.47,516.82l1.36-2.52-.28-.15-1.36,2.52c-1.02-.52-2.18-.82-3.41-.82s-2.26.27-3.24.74l-1.32-2.45-.28.15,1.31,2.43c-2.34,1.26-3.94,3.72-3.96,6.57h14.99c-.02-2.78-1.55-5.2-3.81-6.48M39.92,520.41c-.39,0-.71-.32-.71-.71s.32-.72.71-.72.71.32.71.72-.32.71-.71.71M47.52,520.41c-.39,0-.71-.32-.71-.71s.32-.72.71-.72.71.32.71.72-.32.71-.71.71"/>
    <path class="st5" d="M71.6,521.58c.86,0,1.63.21,2.39.48.46.16.93.34,1.4.45.86.21,1.69.14,2.51-.18.58-.23,1.17-.46,1.79-.6,1.85-.42,3.5,0,4.99,1.13.41.31.78.66,1.11,1.06.13.15.13.18-.05.3-1.54.94-2.44,2.31-2.6,4.11-.15,1.68.36,3.15,1.53,4.38.51.53,1.11.93,1.78,1.22.19.07.2.11.12.29-.75,1.75-1.76,3.35-3,4.79-.43.48-.92.93-1.49,1.25-.9.5-1.84.51-2.78.11-.39-.16-.76-.36-1.16-.5-1.3-.41-2.58-.36-3.84.16-.33.14-.66.29-.99.41-1.21.45-2.31.17-3.31-.61-.61-.48-1.11-1.06-1.56-1.68-1.05-1.42-1.88-2.97-2.45-4.65-.4-1.2-.66-2.43-.72-3.7-.08-1.39.03-2.76.58-4.05.88-2.01,2.36-3.39,4.5-4.01.42-.12.84-.18,1.25-.16"/>
    <path class="st5" d="M80.7,516.31c0,1.19-.38,2.19-.99,3.11-.69,1.03-1.63,1.75-2.81,2.14-.36.12-.73.18-1.12.18-.15,0-.21-.06-.22-.21-.1-.87.1-1.68.46-2.45.72-1.54,1.92-2.53,3.5-3.11.32-.11.64-.17.98-.22.14-.03.17.06.18.17.01.15.04.31.02.39"/>
    <path class="st4" d="M106.79,517.45c.76.4,1.34.97,1.76,1.69.42.72.62,1.56.62,2.51s-.21,1.77-.62,2.5c-.42.73-1,1.29-1.77,1.7-.76.4-1.64.6-2.65.6h-3.6v-9.61h3.6c1.01,0,1.9.2,2.65.6M106.06,523.7c.49-.48.74-1.17.74-2.05s-.25-1.57-.74-2.07c-.49-.49-1.18-.74-2.07-.74h-1.11v5.58h1.11c.88,0,1.57-.24,2.07-.73"/>
    <polygon class="st4" points="112.83 518.72 112.83 520.66 115.96 520.66 115.96 522.47 112.83 522.47 112.83 524.58 116.37 524.58 116.37 526.45 110.49 526.45 110.49 516.85 116.37 516.85 116.37 518.72 112.83 518.72"/>
    <path class="st4" d="M119.48,526.21c-.56-.23-1-.56-1.33-1.01-.33-.45-.51-.99-.53-1.62h2.49c.04.36.16.63.37.82.21.19.48.28.82.28s.62-.08.82-.24c.2-.16.3-.38.3-.67,0-.24-.08-.43-.24-.59-.16-.16-.35-.28-.59-.38-.23-.1-.56-.21-.99-.34-.62-.19-1.13-.38-1.52-.57-.39-.19-.73-.47-1.01-.85-.28-.37-.42-.86-.42-1.46,0-.89.32-1.59.97-2.1.65-.51,1.49-.76,2.53-.76s1.91.25,2.56.76c.65.51,1,1.21,1.04,2.11h-2.53c-.02-.31-.13-.55-.34-.73-.21-.18-.48-.27-.81-.27-.28,0-.51.07-.68.23-.17.15-.26.37-.26.65,0,.31.14.55.44.73.29.17.75.36,1.37.56.62.21,1.12.41,1.51.6.39.19.72.47,1.01.83.28.36.42.83.42,1.41s-.14,1.05-.42,1.49c-.28.45-.68.8-1.21,1.07-.53.26-1.15.4-1.88.4s-1.33-.11-1.89-.34"/>
    <path class="st4" d="M126.53,519.1c.41-.74.98-1.32,1.72-1.74.73-.42,1.57-.62,2.5-.62,1.14,0,2.12.3,2.93.9.81.6,1.35,1.42,1.63,2.46h-2.57c-.19-.4-.46-.71-.81-.92-.35-.21-.75-.32-1.2-.32-.72,0-1.3.25-1.75.75-.45.5-.67,1.17-.67,2.01s.22,1.51.67,2.01c.45.5,1.03.75,1.75.75.45,0,.85-.1,1.2-.31.35-.21.62-.51.81-.92h2.57c-.27,1.04-.82,1.86-1.63,2.46-.81.6-1.79.9-2.93.9-.93,0-1.76-.21-2.5-.62-.74-.42-1.31-.99-1.72-1.73-.41-.74-.62-1.58-.62-2.53s.21-1.79.62-2.54"/>
    <path class="st4" d="M142.72,524.76h-3.59l-.58,1.7h-2.45l3.48-9.61h2.71l3.48,9.61h-2.48l-.57-1.7ZM142.12,522.95l-1.19-3.52-1.18,3.52h2.37Z"/>
    <path class="st4" d="M151.72,526.45l-2-3.63h-.56v3.63h-2.34v-9.61h3.93c.76,0,1.4.13,1.94.4.53.26.93.63,1.2,1.09.26.46.4.97.4,1.54,0,.64-.18,1.21-.54,1.71-.36.5-.89.86-1.59,1.07l2.22,3.8h-2.64ZM149.16,521.17h1.45c.43,0,.75-.1.96-.31.21-.21.32-.51.32-.89s-.11-.65-.32-.86c-.21-.21-.54-.32-.96-.32h-1.45v2.38Z"/>
    <path class="st4" d="M162.12,519.88c-.17-.32-.42-.56-.75-.73-.32-.17-.7-.25-1.14-.25-.76,0-1.36.25-1.82.74-.46.5-.68,1.16-.68,1.99,0,.89.24,1.58.72,2.07.48.5,1.14.75,1.98.75.58,0,1.06-.15,1.46-.44.4-.29.69-.71.87-1.26h-2.97v-1.72h5.09v2.18c-.17.58-.47,1.13-.88,1.63-.42.5-.94.91-1.58,1.22-.64.31-1.36.46-2.16.46-.95,0-1.8-.21-2.54-.62-.74-.41-1.32-.99-1.74-1.73-.42-.74-.62-1.58-.62-2.53s.21-1.8.62-2.54c.41-.74.99-1.32,1.73-1.74.74-.42,1.58-.62,2.53-.62,1.15,0,2.12.28,2.91.83.79.56,1.31,1.33,1.57,2.31h-2.59Z"/>
    <path class="st4" d="M172.15,524.76h-3.59l-.58,1.7h-2.45l3.48-9.61h2.71l3.48,9.61h-2.48l-.57-1.7ZM171.55,522.95l-1.19-3.52-1.18,3.52h2.37Z"/>
    <polygon class="st4" points="109.13 540.37 106.79 540.37 102.88 534.45 102.88 540.37 100.54 540.37 100.54 530.77 102.88 530.77 106.79 536.72 106.79 530.77 109.13 530.77 109.13 540.37"/>
    <path class="st4" d="M113.13,530.77v5.75c0,.58.14,1.02.42,1.33.28.31.7.46,1.24.46s.97-.15,1.26-.46.44-.75.44-1.33v-5.75h2.34v5.73c0,.86-.18,1.58-.55,2.18-.37.59-.86,1.04-1.47,1.34-.62.3-1.3.45-2.06.45s-1.44-.15-2.03-.44c-.6-.3-1.07-.74-1.42-1.34-.35-.6-.52-1.32-.52-2.18v-5.73h2.34Z"/>
    <polygon class="st4" points="122.82 532.64 122.82 534.58 125.95 534.58 125.95 536.39 122.82 536.39 122.82 538.5 126.36 538.5 126.36 540.37 120.48 540.37 120.48 530.77 126.36 530.77 126.36 532.64 122.82 532.64"/>
    <path class="st4" d="M129.47,540.13c-.56-.23-1-.56-1.33-1.01-.33-.45-.51-.99-.53-1.62h2.49c.04.36.16.63.37.82.21.19.48.28.82.28s.62-.08.82-.24c.2-.16.3-.38.3-.67,0-.24-.08-.43-.24-.59-.16-.16-.35-.28-.59-.38-.23-.1-.56-.21-.99-.34-.62-.19-1.13-.38-1.52-.57-.39-.19-.73-.47-1.01-.85-.28-.37-.42-.86-.42-1.46,0-.89.32-1.59.97-2.1.65-.51,1.49-.76,2.53-.76s1.91.25,2.56.76c.65.51,1,1.21,1.04,2.11h-2.53c-.02-.31-.13-.55-.34-.73-.21-.18-.48-.27-.81-.27-.28,0-.51.07-.68.23-.17.15-.26.37-.26.65,0,.31.14.55.44.73.29.17.75.36,1.37.56.62.21,1.12.41,1.51.6.39.19.72.47,1.01.83.28.36.42.83.42,1.41s-.14,1.05-.42,1.49c-.28.45-.68.8-1.21,1.07-.53.26-1.15.4-1.88.4s-1.33-.11-1.89-.34"/>
    <polygon class="st4" points="143.21 530.77 143.21 532.64 140.66 532.64 140.66 540.37 138.32 540.37 138.32 532.64 135.78 532.64 135.78 530.77 143.21 530.77"/>
    <path class="st4" d="M149.29,540.37l-2-3.63h-.56v3.63h-2.34v-9.61h3.93c.76,0,1.4.13,1.94.4.53.26.93.63,1.2,1.09.26.46.4.97.4,1.54,0,.64-.18,1.21-.54,1.71-.36.5-.89.86-1.59,1.07l2.22,3.8h-2.64ZM146.73,535.09h1.45c.43,0,.75-.1.96-.31.21-.21.32-.51.32-.89s-.11-.65-.32-.86c-.21-.21-.54-.32-.96-.32h-1.45v2.38Z"/>
    <path class="st4" d="M159.29,538.68h-3.59l-.58,1.7h-2.45l3.48-9.61h2.71l3.48,9.61h-2.48l-.57-1.7ZM158.69,536.87l-1.19-3.52-1.18,3.52h2.37Z"/>
    <path class="st4" d="M172.28,538.68h-3.59l-.58,1.7h-2.45l3.48-9.61h2.71l3.48,9.61h-2.48l-.57-1.7ZM171.67,536.87l-1.19-3.52-1.18,3.52h2.37Z"/>
    <path class="st4" d="M183.32,535.38c-.26.46-.65.83-1.18,1.12-.53.28-1.19.42-1.97.42h-1.45v3.45h-2.34v-9.61h3.79c.76,0,1.41.13,1.94.4.53.26.93.63,1.19,1.1.26.47.4,1,.4,1.6,0,.56-.13,1.07-.38,1.53M180.99,534.75c.22-.21.33-.51.33-.89s-.11-.68-.33-.89c-.22-.21-.55-.32-1-.32h-1.27v2.41h1.27c.45,0,.78-.1,1-.32"/>
    <path class="st4" d="M191.86,535.38c-.26.46-.65.83-1.18,1.12-.53.28-1.19.42-1.97.42h-1.45v3.45h-2.34v-9.61h3.79c.76,0,1.41.13,1.94.4.53.26.93.63,1.19,1.1.26.47.4,1,.4,1.6,0,.56-.13,1.07-.38,1.53M189.53,534.75c.22-.21.33-.51.33-.89s-.11-.68-.33-.89c-.22-.21-.55-.32-1-.32h-1.27v2.41h1.27c.45,0,.78-.1,1-.32"/>
  </g>
  <g>
    <text class="st3" transform="translate(38.7 397.96) scale(1.04 1)"><tspan x="0" y="0">50</tspan></text>
    <text class="st9" transform="translate(52.2 189) scale(.88 1)"><tspan x="0" y="0">Hasta </tspan></text>
    <g>
      <text class="st6" transform="translate(261.61 397.96) scale(1.04 1)"><tspan x="0" y="0" xml:space="preserve"> OFF</tspan></text>
      <text class="st7" transform="translate(246.81 324.39) scale(1.04 1)"><tspan class="st0" x="0" y="0"> </tspan><tspan class="st25" x="24.08" y="0">%</tspan></text>
    </g>
    <text class="st8" transform="translate(62.27 482.56) scale(.88 1)"><tspan x="0" y="0">Menores gratis en anuales</tspan></text>
    <text class="st10" transform="translate(37.89 485.05) scale(.88 1)"><tspan x="0" y="0">+</tspan></text>
    <text class="st11" transform="translate(61.73 444.1) scale(.88 1)"><tspan x="0" y="0">3 meses sin intereses</tspan></text>
    <text class="st10" transform="translate(37.35 446.59) scale(.88 1)"><tspan x="0" y="0">+</tspan></text>
  </g>
  <rect class="st4" x="-13.41" y="556.33" width="632.12" height="221.41"/>
  <text class="st26" transform="translate(8.44 690.83)"><tspan class="st12"><tspan x="0" y="0">Promoción válida para emisiones realizadas entre el 29/06/2026 y el 17/07/2026, ambas fechas inclusive, para la República Mexicana. Para la contratación de Módulos de </tspan></tspan><tspan class="st12" x="0" y="11">Días</tspan><tspan class="st19" x="14.78" y="11"> </tspan><tspan class="st12" x="16.78" y="11">(hasta</tspan><tspan class="st23" x="39.68" y="11"> </tspan><tspan class="st12" x="41.69" y="11">60</tspan><tspan class="st23" x="50.39" y="11"> </tspan><tspan class="st12" x="52.4" y="11">días),</tspan><tspan class="st23" x="71.38" y="11"> </tspan><tspan class="st12" x="73.38" y="11">obtenga</tspan><tspan class="st23" x="102.94" y="11"> </tspan><tspan class="st12" x="104.94" y="11">un</tspan><tspan class="st19" x="113.76" y="11"> </tspan><tspan class="st12" x="115.77" y="11">35%</tspan><tspan class="st23" x="129.39" y="11"> </tspan><tspan class="st12" x="131.4" y="11">de</tspan><tspan class="st23" x="140.33" y="11"> </tspan><tspan class="st12" x="142.33" y="11">descuento</tspan><tspan class="st23" x="179.01" y="11"> </tspan><tspan class="st12" x="181.01" y="11">en</tspan><tspan class="st23" x="189.69" y="11"> </tspan><tspan class="st12" x="191.7" y="11">el</tspan><tspan class="st23" x="197.62" y="11"> </tspan><tspan class="st12" x="199.62" y="11">producto</tspan><tspan class="st23" x="231.37" y="11"> </tspan><tspan class="st12" x="233.38" y="11">Excellence,</tspan><tspan class="st23" x="270.38" y="11"> </tspan><tspan class="st12" x="272.39" y="11">un</tspan><tspan class="st23" x="281.21" y="11"> </tspan><tspan class="st12" x="283.21" y="11">40%</tspan><tspan class="st23" x="297.11" y="11"> </tspan><tspan class="st12" x="299.12" y="11">de</tspan><tspan class="st23" x="308.05" y="11"> </tspan><tspan class="st12" x="310.05" y="11">descuento</tspan><tspan class="st23" x="346.73" y="11"> </tspan><tspan class="st29" x="348.73" y="11">en</tspan><tspan class="st23" x="357.41" y="11"> </tspan><tspan class="st29" x="359.42" y="11">los</tspan><tspan class="st19" x="369.06" y="11"> </tspan><tspan class="st12" x="371.07" y="11">productos</tspan><tspan class="st23" x="406.4" y="11"> </tspan><tspan class="st12" x="408.41" y="11">Exclusive</tspan><tspan class="st23" x="438.82" y="11"> </tspan><tspan class="st29" x="440.82" y="11">y</tspan><tspan class="st23" x="444.69" y="11"> </tspan><tspan class="st12" x="446.7" y="11">Maximum,</tspan><tspan class="st23" x="482.26" y="11"> </tspan><tspan class="st12" x="484.26" y="11">y</tspan><tspan class="st23" x="488.13" y="11"> </tspan><tspan class="st29" x="490.14" y="11">un</tspan><tspan class="st23" x="498.96" y="11"> </tspan><tspan class="st29" x="500.96" y="11">50%</tspan><tspan class="st23" x="514.86" y="11"> </tspan><tspan class="st29" x="516.86" y="11">de</tspan><tspan class="st23" x="525.8" y="11"> </tspan><tspan class="st29" x="527.8" y="11">descuento</tspan><tspan class="st23" x="564.47" y="11"> </tspan><tspan class="st12" x="566.48" y="11">en</tspan><tspan class="st19" x="575.16" y="11"> </tspan><tspan class="st12" x="577.16" y="11">el </tspan><tspan class="st12" x="0" y="22">producto</tspan><tspan class="st21" x="31.75" y="22"> </tspan><tspan class="st12" x="33.93" y="22">Million.</tspan><tspan class="st16" x="56.72" y="22"> </tspan><tspan class="st29" x="58.9" y="22">Para</tspan><tspan class="st21" x="74.74" y="22"> </tspan><tspan class="st12" x="76.93" y="22">la</tspan><tspan class="st21" x="83.24" y="22"> </tspan><tspan class="st29" x="85.42" y="22">modalidad</tspan><tspan class="st16" x="123.58" y="22"> </tspan><tspan class="st29" x="125.77" y="22">de</tspan><tspan class="st21" x="134.7" y="22"> </tspan><tspan class="st12" x="136.88" y="22">Anuales</tspan><tspan class="st21" x="164.51" y="22"> </tspan><tspan class="st29" x="166.69" y="22">Multiviajes</tspan><tspan class="st21" x="202.53" y="22"> </tspan><tspan class="st12" x="204.71" y="22">(hasta</tspan><tspan class="st21" x="227.62" y="22"> </tspan><tspan class="st12" x="229.8" y="22">30</tspan><tspan class="st21" x="238.18" y="22"> </tspan><tspan class="st12" x="240.36" y="22">días</tspan><tspan class="st21" x="254.92" y="22"> </tspan><tspan class="st12" x="257.1" y="22">por</tspan><tspan class="st21" x="268.71" y="22"> </tspan><tspan class="st12" x="270.89" y="22">viaje),</tspan><tspan class="st21" x="291.42" y="22"> </tspan><tspan class="st29" x="293.6" y="22">obtenga</tspan><tspan class="st21" x="323.16" y="22"> </tspan><tspan class="st12" x="325.34" y="22">un</tspan><tspan class="st21" x="334.16" y="22"> </tspan><tspan class="st29" x="336.34" y="22">30%</tspan><tspan class="st21" x="349.96" y="22"> </tspan><tspan class="st12" x="352.14" y="22">de</tspan><tspan class="st21" x="361.07" y="22"> </tspan><tspan class="st12" x="363.26" y="22">descuento</tspan><tspan class="st21" x="399.93" y="22"> </tspan><tspan class="st12" x="402.11" y="22">en</tspan><tspan class="st21" x="410.79" y="22"> </tspan><tspan class="st29" x="412.97" y="22">el</tspan><tspan class="st21" x="418.89" y="22"> </tspan><tspan class="st12" x="421.07" y="22">producto</tspan><tspan class="st21" x="452.82" y="22"> </tspan><tspan class="st12" x="455.01" y="22">Maximum.</tspan><tspan class="st16" x="490.65" y="22"> </tspan><tspan class="st29" x="492.83" y="22">En</tspan><tspan class="st21" x="500.76" y="22"> </tspan><tspan class="st12" x="502.94" y="22">todas</tspan><tspan class="st21" x="522.74" y="22"> </tspan><tspan class="st12" x="524.92" y="22">las</tspan><tspan class="st16" x="534.82" y="22"> </tspan><tspan class="st29" x="537" y="22">emisiones</tspan><tspan class="st21" x="571.97" y="22"> </tspan><tspan class="st12" x="574.15" y="22">de </tspan><tspan class="st12" x="0" y="33">Anuales</tspan><tspan class="st27" x="27.63" y="33"> </tspan><tspan class="st12" x="29.5" y="33">Multiviajes</tspan><tspan class="st27" x="65.33" y="33"> </tspan><tspan class="st12" x="67.2" y="33">en</tspan><tspan class="st22" x="75.88" y="33"> </tspan><tspan class="st12" x="77.74" y="33">el</tspan><tspan class="st27" x="83.66" y="33"> </tspan><tspan class="st29" x="85.52" y="33">producto</tspan><tspan class="st27" x="117.27" y="33"> </tspan><tspan class="st29" x="119.13" y="33">Maximum,</tspan><tspan class="st27" x="154.69" y="33"> </tspan><tspan class="st29" x="156.56" y="33">por</tspan><tspan class="st22" x="168.17" y="33"> </tspan><tspan class="st12" x="170.03" y="33">cada</tspan><tspan class="st27" x="188.2" y="33"> </tspan><tspan class="st12" x="190.06" y="33">persona</tspan><tspan class="st27" x="218.6" y="33"> </tspan><tspan class="st12" x="220.46" y="33">mayor</tspan><tspan class="st27" x="243.08" y="33"> </tspan><tspan class="st12" x="244.94" y="33">de</tspan><tspan class="st27" x="253.87" y="33"> </tspan><tspan class="st29" x="255.74" y="33">entre</tspan><tspan class="st27" x="273.7" y="33"> </tspan><tspan class="st29" x="275.57" y="33">21</tspan><tspan class="st27" x="281.69" y="33"> </tspan><tspan class="st29" x="283.55" y="33">y</tspan><tspan class="st27" x="287.42" y="33"> </tspan><tspan class="st12" x="289.29" y="33">70</tspan><tspan class="st22" x="297.36" y="33"> </tspan><tspan class="st12" x="299.22" y="33">años,</tspan><tspan class="st27" x="317.61" y="33"> </tspan><tspan class="st29" x="319.47" y="33">se</tspan><tspan class="st27" x="327.32" y="33"> </tspan><tspan class="st29" x="329.18" y="33">bonificará</tspan><tspan class="st27" x="364.25" y="33"> </tspan><tspan class="st12" x="366.11" y="33">una</tspan><tspan class="st27" x="379.59" y="33"> </tspan><tspan class="st29" x="381.45" y="33">persona</tspan><tspan class="st27" x="409.99" y="33"> </tspan><tspan class="st12" x="411.85" y="33">menor</tspan><tspan class="st27" x="434.62" y="33"> </tspan><tspan class="st12" x="436.48" y="33">de</tspan><tspan class="st22" x="445.42" y="33"> </tspan><tspan class="st12" x="447.28" y="33">hasta</tspan><tspan class="st27" x="467.07" y="33"> </tspan><tspan class="st29" x="468.93" y="33">20</tspan><tspan class="st27" x="477.21" y="33"> </tspan><tspan class="st29" x="479.08" y="33">años.</tspan><tspan class="st27" x="497.54" y="33"> </tspan><tspan class="st29" x="499.4" y="33">No</tspan><tspan class="st27" x="508.66" y="33"> </tspan><tspan class="st12" x="510.53" y="33">aplicable</tspan><tspan class="st27" x="542.58" y="33"> </tspan><tspan class="st29" x="544.44" y="33">a</tspan><tspan class="st27" x="549.1" y="33"> </tspan><tspan class="st12" x="550.96" y="33">personas </tspan><tspan class="st12" x="0" y="44">mayores</tspan><tspan class="st28" x="30.48" y="44"> </tspan><tspan class="st12" x="33.06" y="44">de</tspan><tspan class="st28" x="41.99" y="44"> </tspan><tspan class="st29" x="44.58" y="44">70</tspan><tspan class="st28" x="52.66" y="44"> </tspan><tspan class="st29" x="55.24" y="44">(setenta)</tspan><tspan class="st28" x="87.61" y="44"> </tspan><tspan class="st29" x="90.19" y="44">años</tspan><tspan class="st28" x="107.26" y="44"> </tspan><tspan class="st12" x="109.84" y="44">al</tspan><tspan class="st28" x="116.15" y="44"> </tspan><tspan class="st29" x="118.74" y="44">momento</tspan><tspan class="st28" x="153" y="44"> </tspan><tspan class="st29" x="155.58" y="44">de</tspan><tspan class="st13" x="164.51" y="44"> </tspan><tspan class="st12" x="167.1" y="44">la</tspan><tspan class="st13" x="173.41" y="44"> </tspan><tspan class="st12" x="175.99" y="44">contratación.</tspan><tspan class="st13" x="221.86" y="44"> </tspan><tspan class="st12" x="224.45" y="44">No</tspan><tspan class="st28" x="233.71" y="44"> </tspan><tspan class="st12" x="236.29" y="44">acumulable</tspan><tspan class="st28" x="277.99" y="44"> </tspan><tspan class="st29" x="280.58" y="44">con</tspan><tspan class="st13" x="293.57" y="44"> </tspan><tspan class="st12" x="296.16" y="44">otros</tspan><tspan class="st28" x="313.58" y="44"> </tspan><tspan class="st12" x="316.17" y="44">descuentos</tspan><tspan class="st28" x="356.42" y="44"> </tspan><tspan class="st12" x="359.01" y="44">y/o</tspan><tspan class="st13" x="370.55" y="44"> </tspan><tspan class="st12" x="373.13" y="44">promociones.</tspan><tspan class="st13" x="420.2" y="44"> </tspan><tspan class="st12" x="422.78" y="44">-</tspan><tspan class="st28" x="426.57" y="44"> </tspan><tspan class="st29" x="429.15" y="44">Sujeto</tspan><tspan class="st28" x="450.43" y="44"> </tspan><tspan class="st12" x="453.01" y="44">a</tspan><tspan class="st13" x="457.67" y="44"> </tspan><tspan class="st12" x="460.26" y="44">las</tspan><tspan class="st28" x="470.15" y="44"> </tspan><tspan class="st29" x="472.74" y="44">Condiciones</tspan><tspan class="st13" x="515.71" y="44"> </tspan><tspan class="st12" x="518.29" y="44">Generales,</tspan><tspan class="st13" x="554.64" y="44"> </tspan><tspan class="st12" x="557.23" y="44">topes</tspan><tspan class="st28" x="576.63" y="44"> </tspan><tspan class="st29" x="579.22" y="44">y </tspan><tspan class="st12" x="0" y="55">exclusiones,</tspan><tspan class="st2" x="41.02" y="55"> </tspan><tspan class="st12" x="42.67" y="55">específicos</tspan><tspan class="st2" x="81.34" y="55"> </tspan><tspan class="st12" x="83" y="55">del</tspan><tspan class="st2" x="93.58" y="55"> </tspan><tspan class="st12" x="95.23" y="55">producto</tspan><tspan class="st2" x="126.98" y="55"> </tspan><tspan class="st29" x="128.64" y="55">adquirido.</tspan><tspan class="st2" x="163.35" y="55"> </tspan><tspan class="st12" x="165" y="55">Para</tspan><tspan class="st2" x="180.85" y="55"> </tspan><tspan class="st12" x="182.5" y="55">más</tspan><tspan class="st2" x="197.88" y="55"> </tspan><tspan class="st12" x="199.54" y="55">información</tspan><tspan class="st15" x="241.23" y="55"> </tspan><tspan class="st29" x="242.89" y="55">y</tspan><tspan class="st15" x="246.76" y="55"> </tspan><tspan class="st29" x="248.41" y="55">condiciones</tspan><tspan class="st2" x="290.23" y="55"> </tspan><tspan class="st12" x="291.88" y="55">o</tspan><tspan class="st2" x="296.29" y="55"> </tspan><tspan class="st29" x="297.94" y="55">limitaciones</tspan><tspan class="st2" x="339.68" y="55"> </tspan><tspan class="st29" x="341.33" y="55">aplicables,</tspan><tspan class="st2" x="378.28" y="55"> </tspan><tspan class="st12" x="379.93" y="55">consulta</tspan><tspan class="st2" x="409.72" y="55"> </tspan><tspan class="st12" x="411.37" y="55">en</tspan><tspan class="st2" x="420.05" y="55"> </tspan><tspan class="st12" x="421.7" y="55">www.universal-assistance.com</tspan><tspan class="st2" x="529.13" y="55"> </tspan><tspan class="st12" x="530.78" y="55">o</tspan><tspan class="st2" x="535.19" y="55"> </tspan><tspan class="st12" x="536.84" y="55">con</tspan><tspan class="st2" x="549.84" y="55"> </tspan><tspan class="st12" x="551.49" y="55">tu</tspan><tspan class="st2" x="558.38" y="55"> </tspan><tspan class="st29" x="560.03" y="55">asesor </tspan><tspan class="st12"><tspan x="0" y="66">de viaje.</tspan></tspan></text>
  <g>
    <g>
      <path class="st1" d="M118.1,599.46c-.4-.18-.76-.44-1.07-.75v-.85c0-.56-.45-1.01-1.01-1.01-.08,0-.16.01-.23.03-.02-.05-.04-.09-.07-.14v.16c-.41.13-.71.51-.71.96v9.32c-1.39-.53-3.3-.33-5.03.67-2.6,1.5-3.85,4.22-2.78,6.07,1.07,1.86,4.04,2.15,6.65.65,2.01-1.15,3.2-3.03,3.16-4.68.01-.07.02-.13.02-.21v-7.27c2.77,1.44,4.4,2.4,3.47,6.74,0,.42,2.71-2.4,2.09-5.11-.63-2.71-1.88-3.44-4.48-4.59Z"/>
      <path class="st1" d="M393.09,650.95c-.4-.18-.76-.44-1.07-.75v-.85c0-.56-.45-1.01-1.01-1.01-.08,0-.16.01-.23.03-.02-.05-.04-.09-.07-.14v.16c-.41.13-.71.51-.71.96v9.32c-1.39-.53-3.3-.33-5.03.67-2.6,1.5-3.85,4.22-2.78,6.07,1.07,1.86,4.04,2.15,6.65.65,2.01-1.15,3.2-3.03,3.16-4.68.01-.07.02-.13.02-.21v-7.27c2.77,1.44,4.4,2.4,3.47,6.74,0,.42,2.71-2.4,2.09-5.11-.63-2.71-1.88-3.44-4.48-4.59Z"/>
      <g>
        <path class="st14" d="M123.81,630.63c-1.44-1.34-2.16-3.37-2.16-6.08v-4.07h-1.82c-.97,0-1.45-.48-1.45-1.45v-3.27c0-.97.48-1.45,1.45-1.45h1.82v-3.49c0-.97.48-1.45,1.45-1.45h9.44c.97,0,1.45.48,1.45,1.45v3.49h2.36c.97,0,1.45.48,1.45,1.45v3.27c0,.97-.48,1.45-1.45,1.45h-2.36v1.49c0,.75.17,1.29.51,1.62.34.33.86.49,1.56.49.24,0,.42-.01.54-.04.15-.02.34-.04.58-.04.36,0,.62.08.78.24.16.16.24.44.24.85v4.68c0,.8-.24,1.32-.73,1.56-.8.41-1.79.73-2.96.96-1.17.23-2.37.35-3.58.35-3.32,0-5.7-.67-7.14-2.02Z"/>
        <path class="st14" d="M140.2,622c0-3.34,1.21-5.94,3.63-7.81,2.42-1.86,5.85-2.8,10.28-2.8,3.15,0,5.63.54,7.46,1.62,1.83,1.08,3.07,2.38,3.72,3.92.65,1.54.92,3.06.8,4.56-.02.44-.18.76-.45.98-.28.22-.65.33-1.11.33h-13c.19.85.65,1.47,1.36,1.85.71.39,1.71.58,3,.58.99,0,2.06-.07,3.21-.2,1.15-.13,2.21-.33,3.18-.6.22-.07.42-.11.62-.11.58,0,.98.34,1.2,1.02l1.13,3.45c.1.39.15.64.15.76,0,.44-.18.75-.54.94-1.19.65-2.71,1.17-4.56,1.54-1.85.38-3.7.56-5.54.56-9.68,0-14.52-3.53-14.52-10.6ZM156.87,620.26c-.15-.73-.42-1.29-.82-1.69-.4-.4-1-.6-1.8-.6s-1.45.22-1.87.65c-.42.44-.7.98-.82,1.63h5.3Z"/>
        <path class="st14" d="M167.91,622c0-3.34,1.21-5.94,3.63-7.81,2.42-1.86,5.85-2.8,10.28-2.8,3.15,0,5.63.54,7.46,1.62,1.83,1.08,3.07,2.38,3.72,3.92.65,1.54.92,3.06.8,4.56-.02.44-.18.76-.45.98-.28.22-.65.33-1.11.33h-13c.19.85.65,1.47,1.36,1.85.71.39,1.71.58,3,.58.99,0,2.06-.07,3.21-.2,1.15-.13,2.21-.33,3.18-.6.22-.07.42-.11.62-.11.58,0,.98.34,1.2,1.02l1.13,3.45c.1.39.15.64.15.76,0,.44-.18.75-.54.94-1.19.65-2.71,1.17-4.56,1.54-1.85.38-3.7.56-5.54.56-9.68,0-14.52-3.53-14.52-10.6ZM184.57,620.26c-.15-.73-.42-1.29-.82-1.69-.4-.4-1-.6-1.8-.6s-1.45.22-1.87.65c-.42.44-.7.98-.82,1.63h5.3Z"/>
        <path class="st14" d="M195.61,622c0-3.34,1.21-5.94,3.63-7.81,2.42-1.86,5.85-2.8,10.28-2.8,3.15,0,5.63.54,7.46,1.62,1.83,1.08,3.07,2.38,3.72,3.92.65,1.54.92,3.06.8,4.56-.02.44-.18.76-.45.98-.28.22-.65.33-1.11.33h-13c.19.85.65,1.47,1.36,1.85.71.39,1.71.58,3,.58.99,0,2.06-.07,3.21-.2,1.15-.13,2.21-.33,3.18-.6.22-.07.42-.11.62-.11.58,0,.98.34,1.2,1.02l1.13,3.45c.1.39.15.64.15.76,0,.44-.18.75-.54.94-1.19.65-2.71,1.17-4.56,1.54-1.85.38-3.7.56-5.54.56-9.68,0-14.52-3.53-14.52-10.6ZM212.28,620.26c-.15-.73-.42-1.29-.82-1.69-.4-.4-1-.6-1.8-.6s-1.45.22-1.87.65c-.42.44-.7.98-.82,1.63h5.3Z"/>
        <path class="st14" d="M223.32,622c0-3.34,1.21-5.94,3.63-7.81,2.42-1.86,5.85-2.8,10.28-2.8,3.15,0,5.63.54,7.46,1.62,1.83,1.08,3.07,2.38,3.72,3.92.65,1.54.92,3.06.8,4.56-.02.44-.18.76-.45.98-.28.22-.65.33-1.11.33h-13c.19.85.65,1.47,1.36,1.85.71.39,1.71.58,3,.58.99,0,2.06-.07,3.21-.2,1.15-.13,2.21-.33,3.18-.6.22-.07.42-.11.62-.11.58,0,.98.34,1.2,1.02l1.13,3.45c.1.39.15.64.15.76,0,.44-.18.75-.54.94-1.19.65-2.71,1.17-4.56,1.54-1.85.38-3.7.56-5.54.56-9.68,0-14.52-3.53-14.52-10.6ZM239.98,620.26c-.15-.73-.42-1.29-.82-1.69-.4-.4-1-.6-1.8-.6s-1.45.22-1.87.65c-.42.44-.7.98-.82,1.63h5.3Z"/>
        <path class="st14" d="M251.02,622c0-3.34,1.21-5.94,3.63-7.81,2.42-1.86,5.85-2.8,10.28-2.8,3.15,0,5.63.54,7.46,1.62,1.83,1.08,3.07,2.38,3.72,3.92.65,1.54.92,3.06.8,4.56-.02.44-.18.76-.45.98-.28.22-.65.33-1.11.33h-13c.19.85.65,1.47,1.36,1.85.71.39,1.71.58,3,.58.99,0,2.06-.07,3.21-.2,1.15-.13,2.21-.33,3.18-.6.22-.07.42-.11.62-.11.58,0,.98.34,1.2,1.02l1.13,3.45c.1.39.15.64.15.76,0,.44-.18.75-.54.94-1.19.65-2.71,1.17-4.56,1.54-1.85.38-3.7.56-5.54.56-9.68,0-14.52-3.53-14.52-10.6ZM267.69,620.26c-.15-.73-.42-1.29-.82-1.69-.4-.4-1-.6-1.8-.6s-1.45.22-1.87.65c-.42.44-.7.98-.82,1.63h5.3Z"/>
        <path class="st14" d="M278.72,622c0-3.34,1.21-5.94,3.63-7.81,2.42-1.86,5.85-2.8,10.28-2.8,3.15,0,5.63.54,7.46,1.62,1.83,1.08,3.07,2.38,3.72,3.92.65,1.54.92,3.06.8,4.56-.02.44-.18.76-.45.98-.28.22-.65.33-1.11.33h-13c.19.85.65,1.47,1.36,1.85.71.39,1.71.58,3,.58.99,0,2.06-.07,3.21-.2,1.15-.13,2.21-.33,3.18-.6.22-.07.42-.11.62-.11.58,0,.98.34,1.2,1.02l1.13,3.45c.1.39.15.64.15.76,0,.44-.18.75-.54.94-1.19.65-2.71,1.17-4.56,1.54-1.85.38-3.7.56-5.54.56-9.68,0-14.52-3.53-14.52-10.6ZM295.39,620.26c-.15-.73-.42-1.29-.82-1.69-.4-.4-1-.6-1.8-.6s-1.45.22-1.87.65c-.42.44-.7.98-.82,1.63h5.3Z"/>
        <path class="st14" d="M306.43,622c0-3.34,1.21-5.94,3.63-7.81,2.42-1.86,5.85-2.8,10.28-2.8,3.15,0,5.63.54,7.46,1.62,1.83,1.08,3.07,2.38,3.72,3.92.65,1.54.92,3.06.8,4.56-.02.44-.18.76-.45.98-.28.22-.65.33-1.11.33h-13c.19.85.65,1.47,1.36,1.85.71.39,1.71.58,3,.58.99,0,2.06-.07,3.21-.2,1.15-.13,2.21-.33,3.18-.6.22-.07.42-.11.62-.11.58,0,.98.34,1.2,1.02l1.13,3.45c.1.39.15.64.15.76,0,.44-.18.75-.54.94-1.19.65-2.71,1.17-4.56,1.54-1.85.38-3.7.56-5.54.56-9.68,0-14.52-3.53-14.52-10.6ZM323.09,620.26c-.15-.73-.42-1.29-.82-1.69-.4-.4-1-.6-1.8-.6s-1.45.22-1.87.65c-.42.44-.7.98-.82,1.63h5.3Z"/>
        <path class="st14" d="M334.13,622c0-3.34,1.21-5.94,3.63-7.81,2.42-1.86,5.85-2.8,10.28-2.8,3.15,0,5.63.54,7.46,1.62,1.83,1.08,3.07,2.38,3.72,3.92.65,1.54.92,3.06.8,4.56-.02.44-.18.76-.45.98-.28.22-.65.33-1.11.33h-13c.19.85.65,1.47,1.36,1.85.71.39,1.71.58,3,.58.99,0,2.06-.07,3.21-.2,1.15-.13,2.21-.33,3.18-.6.22-.07.42-.11.62-.11.58,0,.98.34,1.2,1.02l1.13,3.45c.1.39.15.64.15.76,0,.44-.18.75-.54.94-1.19.65-2.71,1.17-4.56,1.54-1.85.38-3.7.56-5.54.56-9.68,0-14.52-3.53-14.52-10.6ZM350.8,620.26c-.15-.73-.42-1.29-.82-1.69-.4-.4-1-.6-1.8-.6s-1.45.22-1.87.65c-.42.44-.7.98-.82,1.63h5.3Z"/>
        <path class="st14" d="M361.84,622c0-3.34,1.21-5.94,3.63-7.81,2.42-1.86,5.85-2.8,10.28-2.8,3.15,0,5.63.54,7.46,1.62,1.83,1.08,3.07,2.38,3.72,3.92.65,1.54.92,3.06.8,4.56-.02.44-.18.76-.45.98-.28.22-.65.33-1.11.33h-13c.19.85.65,1.47,1.36,1.85.71.39,1.71.58,3,.58.99,0,2.06-.07,3.21-.2,1.15-.13,2.21-.33,3.18-.6.22-.07.42-.11.62-.11.58,0,.98.34,1.2,1.02l1.13,3.45c.1.39.15.64.15.76,0,.44-.18.75-.54.94-1.19.65-2.71,1.17-4.56,1.54-1.85.38-3.7.56-5.54.56-9.68,0-14.52-3.53-14.52-10.6ZM378.5,620.26c-.15-.73-.42-1.29-.82-1.69-.4-.4-1-.6-1.8-.6s-1.45.22-1.87.65c-.42.44-.7.98-.82,1.63h5.3Z"/>
        <path class="st14" d="M123.44,656c-2.06-1.95-3.09-4.51-3.09-7.68,0-1.81.41-3.52,1.22-5.12.81-1.6,2.19-2.91,4.14-3.94,1.95-1.03,4.52-1.54,7.72-1.54,1.65,0,3.25.15,4.81.44,1.56.29,2.83.65,3.79,1.09.56.27.84.69.84,1.27,0,.19-.04.4-.11.62l-1.42,4.5c-.19.63-.56.94-1.09.94-.22,0-.46-.04-.73-.11-.85-.27-1.71-.4-2.58-.4-1.45,0-2.5.19-3.14.56-.64.38-.96.87-.96,1.47,0,.68.33,1.19,1,1.54.67.35,1.57.53,2.71.53s2.25-.25,3.49-.76c.24-.12.51-.18.8-.18.51,0,.85.33,1.02.98l1.27,5.16c.1.44.15.73.15.87,0,.31-.11.54-.33.69-.99.51-2.35.97-4.07,1.38-1.72.41-3.43.62-5.12.62-4.82,0-8.26-.97-10.31-2.92Z"/>
        <path class="st14" d="M147.08,657c-1.45-1.28-2.18-3.17-2.18-5.66v-11.73c0-.97.48-1.45,1.45-1.45h9.44c.97,0,1.45.48,1.45,1.45v8.68c0,.68.11,1.17.35,1.49.23.31.6.47,1.11.47s.88-.16,1.11-.47c.23-.31.35-.81.35-1.49v-8.68c0-.97.48-1.45,1.45-1.45h9.44c.97,0,1.45.48,1.45,1.45v17.43c0,.97-.48,1.45-1.45,1.45h-9.44c-.97,0-1.45-.48-1.45-1.45v-2.07h-.15c-.51,1.28-1.31,2.26-2.41,2.94-1.1.68-2.65,1.02-4.63,1.02-2.47,0-4.43-.64-5.88-1.92Z"/>
        <path class="st14" d="M174.68,648.32c0-3.34,1.21-5.94,3.63-7.81,2.42-1.86,5.85-2.8,10.28-2.8,3.15,0,5.63.54,7.46,1.62,1.83,1.08,3.07,2.38,3.72,3.92.65,1.54.92,3.06.8,4.56-.02.44-.18.76-.45.98-.28.22-.65.33-1.11.33h-13c.19.85.65,1.47,1.36,1.85.71.39,1.71.58,3,.58.99,0,2.06-.07,3.21-.2,1.15-.13,2.21-.33,3.18-.6.22-.07.42-.11.62-.11.58,0,.98.34,1.2,1.02l1.13,3.45c.1.39.15.64.15.76,0,.44-.18.75-.54.94-1.19.65-2.71,1.17-4.56,1.54-1.85.38-3.7.56-5.54.56-9.68,0-14.52-3.53-14.52-10.6ZM191.34,646.58c-.15-.73-.42-1.29-.82-1.69-.4-.4-1-.6-1.8-.6s-1.45.22-1.87.65c-.42.44-.7.98-.82,1.63h5.3Z"/>
        <path class="st14" d="M207.05,658.49c-1.78-.29-3.24-.67-4.38-1.13-.58-.24-.87-.64-.87-1.2,0-.22.04-.45.11-.69l1.52-4.32c.27-.65.69-.98,1.27-.98.19,0,.4.04.62.11,1.48.46,3.11.69,4.9.69.56,0,.99-.07,1.29-.2.3-.13.45-.38.45-.74s-.15-.61-.45-.74c-.3-.13-.73-.2-1.29-.2-2.64,0-4.62-.48-5.94-1.45-1.32-.97-1.98-2.2-1.98-3.7s.37-2.63,1.11-3.52c.74-.9,1.97-1.57,3.69-2.02,1.72-.45,4.03-.67,6.94-.67,1.6,0,3.23.11,4.88.35,1.66.23,3.08.56,4.27,1,.6.24.91.67.91,1.27,0,.19-.04.4-.11.62l-1.34,3.85c-.22.68-.65,1.02-1.31,1.02-.1,0-.27-.02-.51-.07-1.36-.31-2.88-.47-4.58-.47-.51,0-.92.06-1.23.18-.32.12-.47.36-.47.73s.15.6.45.71c.3.11.72.16,1.25.16,5.64,0,8.46,1.79,8.46,5.37,0,1.74-.48,3.09-1.45,4.03-.97.94-2.29,1.59-3.98,1.94-1.68.35-3.77.53-6.26.53-2.2,0-4.19-.15-5.97-.44Z"/>
        <path class="st14" d="M231.05,656.94c-1.44-1.34-2.16-3.37-2.16-6.08v-4.07h-1.82c-.97,0-1.45-.48-1.45-1.45v-3.27c0-.97.48-1.45,1.45-1.45h1.82v-3.49c0-.97.48-1.45,1.45-1.45h9.44c.97,0,1.45.48,1.45,1.45v3.49h2.36c.97,0,1.45.48,1.45,1.45v3.27c0,.97-.48,1.45-1.45,1.45h-2.36v1.49c0,.75.17,1.29.51,1.62.34.33.86.49,1.56.49.24,0,.42-.01.54-.04.15-.02.34-.04.58-.04.36,0,.62.08.78.24.16.16.24.44.24.85v4.68c0,.8-.24,1.32-.73,1.56-.8.41-1.79.73-2.96.96-1.17.23-2.37.35-3.58.35-3.32,0-5.7-.67-7.14-2.02Z"/>
        <path class="st14" d="M249.4,657.43c-1.43-.99-2.14-2.46-2.14-4.39,0-3.87,2.82-5.81,8.46-5.81,3.61,0,5.85.91,6.72,2.72h.15v-.11c0-.8-.24-1.54-.71-2.23-.47-.69-1.17-1.25-2.11-1.67-.93-.42-2.06-.64-3.4-.64-1.5,0-2.74.1-3.7.29-.12.03-.28.04-.47.04-.7,0-1.13-.37-1.27-1.12l-.69-3.7c-.02-.1-.04-.23-.04-.4,0-.68.33-1.14.98-1.38,1.19-.39,2.71-.7,4.58-.94,1.86-.24,3.68-.36,5.45-.36,4.45,0,7.85.77,10.2,2.31,2.35,1.54,3.52,4.05,3.52,7.53v9.48c0,.97-.48,1.45-1.45,1.45h-9.44c-.46,0-.82-.1-1.07-.31-.25-.21-.38-.49-.38-.85v-1.16h-.15c-.44.87-1.18,1.55-2.23,2.03-1.05.48-2.55.73-4.48.73-2.78,0-4.89-.5-6.32-1.49ZM260.15,654.26c.27.33.6.49,1.02.49s.75-.16,1.02-.49c.27-.33.4-.78.4-1.36s-.13-1.02-.4-1.32c-.27-.3-.61-.45-1.02-.45s-.75.15-1.02.45-.4.74-.4,1.32.13,1.04.4,1.36Z"/>
        <path class="st14" d="M287.28,656c-2.06-1.95-3.09-4.51-3.09-7.68,0-1.81.41-3.52,1.22-5.12.81-1.6,2.19-2.91,4.14-3.94,1.95-1.03,4.52-1.54,7.72-1.54,1.65,0,3.25.15,4.81.44,1.56.29,2.83.65,3.79,1.09.56.27.84.69.84,1.27,0,.19-.04.4-.11.62l-1.42,4.5c-.19.63-.56.94-1.09.94-.22,0-.46-.04-.73-.11-.85-.27-1.71-.4-2.58-.4-1.45,0-2.5.19-3.14.56-.64.38-.96.87-.96,1.47,0,.68.33,1.19,1,1.54.67.35,1.57.53,2.71.53s2.25-.25,3.49-.76c.24-.12.51-.18.8-.18.51,0,.85.33,1.02.98l1.27,5.16c.1.44.15.73.15.87,0,.31-.11.54-.33.69-.99.51-2.35.97-4.07,1.38-1.72.41-3.43.62-5.12.62-4.82,0-8.26-.97-10.31-2.92Z"/>
        <path class="st14" d="M307.65,648.32c0-3.34,1.21-5.94,3.63-7.81,2.42-1.86,5.85-2.8,10.28-2.8,3.15,0,5.63.54,7.46,1.62,1.83,1.08,3.07,2.38,3.72,3.92.65,1.54.92,3.06.8,4.56-.02.44-.18.76-.45.98-.28.22-.65.33-1.11.33h-13c.19.85.65,1.47,1.36,1.85.71.39,1.71.58,3,.58.99,0,2.06-.07,3.21-.2,1.15-.13,2.21-.33,3.18-.6.22-.07.42-.11.62-.11.58,0,.98.34,1.2,1.02l1.13,3.45c.1.39.15.64.15.76,0,.44-.18.75-.54.94-1.19.65-2.71,1.17-4.56,1.54-1.85.38-3.7.56-5.54.56-9.68,0-14.52-3.53-14.52-10.6ZM324.31,646.58c-.15-.73-.42-1.29-.82-1.69-.4-.4-1-.6-1.8-.6s-1.45.22-1.87.65c-.42.44-.7.98-.82,1.63h5.3Z"/>
        <path class="st14" d="M335.71,657.04v-17.43c0-.97.48-1.45,1.45-1.45h9.44c.97,0,1.45.48,1.45,1.45v2.98h.11c.46-1.36,1.2-2.44,2.21-3.27,1.02-.82,2.41-1.33,4.18-1.53.48-.05.86.05,1.13.31s.4.62.4,1.11v6.28c0,.99-.52,1.42-1.56,1.27-.44-.07-.9-.11-1.38-.11-1.43,0-2.63.38-3.61,1.13-.98.75-1.47,2.08-1.47,3.99v5.27c0,.97-.48,1.45-1.45,1.45h-9.44c-.97,0-1.45-.48-1.45-1.45Z"/>
        <path class="st14" d="M361.08,656.2c-2.24-1.82-3.36-4.45-3.36-7.92s1.12-6.09,3.36-7.88c2.24-1.79,5.83-2.69,10.77-2.69s8.52.9,10.75,2.69c2.23,1.79,3.34,4.42,3.34,7.88s-1.11,6.1-3.34,7.92c-2.23,1.81-5.81,2.72-10.75,2.72s-8.53-.91-10.77-2.72ZM370.57,650.32c.24.41.67.62,1.27.62s1.02-.21,1.25-.62c.23-.41.35-1.09.35-2.03s-.12-1.61-.35-2c-.23-.39-.65-.58-1.25-.58s-1.03.19-1.27.58c-.24.39-.36,1.05-.36,2s.12,1.62.36,2.03Z"/>
      </g>
      <g>
        <path class="st14" d="M144.3,598.7c-.84-.85-1.25-1.98-1.25-3.4v-10c0-1.4.42-2.53,1.25-3.37s1.95-1.27,3.33-1.27,2.52.42,3.36,1.25c.84.84,1.25,1.96,1.25,3.38v.46c0,.18-.09.27-.27.27l-1.4.08c-.18,0-.27-.09-.27-.27v-.67c0-.85-.24-1.53-.73-2.05-.49-.52-1.13-.78-1.94-.78s-1.43.26-1.93.78c-.49.52-.74,1.2-.74,2.05v10.3c0,.85.25,1.53.74,2.05.49.52,1.14.78,1.93.78s1.46-.26,1.94-.78c.49-.52.73-1.2.73-2.05v-.67c0-.18.09-.27.27-.27l1.4.08c.18,0,.27.09.27.27v.43c0,1.42-.42,2.55-1.27,3.4-.85.85-1.96,1.27-3.34,1.27s-2.49-.42-3.33-1.27Z"/>
        <path class="st14" d="M155.22,598.83c-.76-.75-1.15-1.75-1.15-2.99v-5.8c0-1.22.39-2.22,1.16-2.99.77-.77,1.8-1.16,3.07-1.16s2.33.39,3.1,1.16c.77.77,1.16,1.77,1.16,2.99v5.8c0,1.24-.39,2.24-1.16,2.99-.77.76-1.81,1.13-3.1,1.13s-2.32-.38-3.09-1.13ZM159.99,597.56c.44-.47.66-1.09.66-1.86v-5.55c0-.77-.22-1.4-.66-1.87s-1-.72-1.69-.72-1.24.24-1.67.72c-.43.48-.65,1.1-.65,1.87v5.55c0,.77.22,1.39.65,1.86.43.47.99.7,1.67.7s1.24-.23,1.69-.7Z"/>
        <path class="st14" d="M172.42,587.05c.6.75.9,1.81.9,3.15v9.28c0,.18-.09.27-.27.27h-1.38c-.18,0-.27-.09-.27-.27v-9.11c0-.88-.19-1.56-.58-2.05-.39-.49-.92-.73-1.6-.73-.72,0-1.28.26-1.69.78-.4.52-.61,1.23-.61,2.13v8.98c0,.18-.09.27-.27.27h-1.38c-.18,0-.27-.09-.27-.27v-13.1c0-.18.09-.27.27-.27h1.38c.18,0,.27.09.27.27v.86s.02.06.05.08c.04.02.06,0,.08-.05.32-.45.73-.79,1.23-1.01.49-.22,1.02-.34,1.58-.34,1.1,0,1.95.38,2.55,1.13Z"/>
        <path class="st14" d="M182.17,598.54c-.85-.95-1.27-2.21-1.27-3.77v-13.62c0-.18.09-.27.27-.27h1.38c.18,0,.27.09.27.27v13.83c0,.99.25,1.79.74,2.4.49.61,1.15.92,1.96.92s1.49-.31,2-.92c.5-.61.76-1.41.76-2.4v-13.83c0-.18.09-.27.27-.27h1.38c.18,0,.27.09.27.27v13.62c0,1.56-.43,2.82-1.28,3.77-.85.95-1.98,1.43-3.38,1.43s-2.5-.48-3.34-1.43Z"/>
        <path class="st14" d="M200.47,587.05c.6.75.9,1.81.9,3.15v9.28c0,.18-.09.27-.27.27h-1.38c-.18,0-.27-.09-.27-.27v-9.11c0-.88-.19-1.56-.58-2.05-.39-.49-.92-.73-1.6-.73-.72,0-1.28.26-1.69.78-.4.52-.61,1.23-.61,2.13v8.98c0,.18-.09.27-.27.27h-1.38c-.18,0-.27-.09-.27-.27v-13.1c0-.18.09-.27.27-.27h1.38c.18,0,.27.09.27.27v.86s.02.06.05.08c.04.02.06,0,.08-.05.32-.45.73-.79,1.23-1.01.49-.22,1.02-.34,1.58-.34,1.1,0,1.95.38,2.55,1.13Z"/>
        <path class="st14" d="M204.03,583.19c-.28-.29-.42-.65-.42-1.08s.14-.81.42-1.09c.28-.28.64-.42,1.09-.42s.79.14,1.07.42c.28.28.42.64.42,1.09s-.14.79-.42,1.08c-.28.29-.63.43-1.07.43s-.81-.14-1.09-.43ZM204.17,599.48v-13.1c0-.18.09-.27.27-.27h1.38c.18,0,.27.09.27.27v13.1c0,.18-.09.27-.27.27h-1.38c-.18,0-.27-.09-.27-.27Z"/>
        <path class="st14" d="M211.4,599.51l-3.34-13.1-.03-.11c0-.13.08-.19.24-.19h1.56c.16,0,.26.08.3.24l2.32,10.22c.02.05.04.08.05.08.02,0,.04-.03.05-.08l2.29-10.22c.04-.16.13-.24.3-.24l1.56.03c.09,0,.16.03.2.08.04.05.05.13.01.22l-3.32,13.08c-.02.16-.12.24-.3.24h-1.62c-.16,0-.26-.08-.3-.24Z"/>
        <path class="st14" d="M226.39,593.65h-6.15c-.07,0-.11.04-.11.11v1.97c0,.76.21,1.37.63,1.85.42.48.98.71,1.66.71.57,0,1.07-.17,1.47-.53s.67-.8.8-1.36c.05-.16.15-.24.3-.24l1.35.05c.07,0,.13.03.19.08.05.05.07.13.05.22-.14,1.06-.58,1.9-1.31,2.52-.73.62-1.68.93-2.84.93-1.28,0-2.3-.38-3.06-1.13-.76-.75-1.15-1.75-1.15-2.99v-5.83c0-1.22.38-2.21,1.15-2.98.76-.76,1.78-1.15,3.06-1.15s2.32.38,3.09,1.15c.76.76,1.15,1.76,1.15,2.98v3.37c0,.18-.09.27-.27.27ZM220.77,588.28c-.42.48-.63,1.1-.63,1.87v1.81c0,.07.04.11.11.11h4.42c.07,0,.11-.03.11-.11v-1.81c0-.77-.22-1.4-.65-1.87-.43-.48-1-.72-1.7-.72s-1.24.24-1.66.72Z"/>
        <path class="st14" d="M234.73,586.27c.13.07.17.19.13.35l-.32,1.4c-.02.16-.13.22-.32.16-.22-.11-.49-.16-.81-.16-.14,0-.25,0-.32.03-.65.04-1.18.37-1.59,1.01-.41.64-.62,1.42-.62,2.33v8.09c0,.18-.09.27-.27.27h-1.38c-.18,0-.27-.09-.27-.27v-13.1c0-.18.09-.27.27-.27h1.38c.18,0,.27.09.27.27v1.62c0,.05.01.08.04.08s.06-.02.09-.05c.52-1.37,1.38-2.05,2.56-2.05.45,0,.84.1,1.16.3Z"/>
        <path class="st14" d="M236.87,598.93c-.75-.64-1.12-1.49-1.12-2.55v-.19c0-.18.09-.27.27-.27h1.29c.18,0,.27.09.27.27v.16c0,.58.21,1.06.63,1.46.42.4.98.59,1.66.59.65,0,1.17-.2,1.56-.59.4-.4.59-.9.59-1.51,0-.47-.13-.86-.38-1.17-.25-.31-.54-.56-.88-.74-.33-.18-.83-.41-1.5-.7-.7-.29-1.28-.57-1.74-.85-.46-.28-.85-.67-1.19-1.19-.33-.51-.5-1.16-.5-1.96,0-1.15.35-2.06,1.07-2.72.71-.66,1.67-1,2.87-1s2.19.34,2.91,1.03c.72.68,1.08,1.59,1.08,2.72v.08c0,.18-.09.27-.27.27h-1.24c-.18,0-.27-.09-.27-.27v-.16c0-.61-.2-1.11-.61-1.51s-.93-.59-1.58-.59-1.16.2-1.55.61c-.39.41-.58.9-.58,1.5,0,.43.12.79.35,1.09s.52.54.86.73c.34.19.82.42,1.43.69.74.32,1.34.63,1.82.92.48.29.89.69,1.25,1.21.36.52.54,1.17.54,1.94,0,1.11-.37,2-1.11,2.67-.74.67-1.73,1-2.99,1s-2.23-.32-2.98-.96Z"/>
        <path class="st14" d="M252.85,587.12c.76.82,1.13,1.91,1.13,3.28v9.09c0,.18-.09.27-.27.27h-1.38c-.18,0-.27-.09-.27-.27v-.81s-.01-.06-.04-.07c-.03,0-.06,0-.09.04-.67.88-1.66,1.32-2.99,1.32-.99,0-1.85-.28-2.58-.85-.73-.57-1.09-1.57-1.09-3.01,0-1.53.44-2.65,1.32-3.36.88-.71,2.04-1.06,3.48-1.06h1.89c.07,0,.11-.04.11-.11v-1.05c0-.9-.21-1.62-.62-2.16-.41-.54-.97-.81-1.67-.81-.54,0-1,.18-1.39.54-.39.36-.62.82-.69,1.38,0,.18-.09.27-.27.27l-1.51-.03c-.09,0-.16-.03-.2-.08-.05-.05-.06-.12-.04-.19.09-1.06.52-1.92,1.29-2.58.77-.66,1.73-.98,2.86-.98,1.26,0,2.27.41,3.02,1.23ZM251.26,597.58c.54-.48.81-1.14.81-1.98v-2.27c0-.07-.04-.11-.11-.11h-1.91c-.86,0-1.55.23-2.05.69-.5.46-.76,1.14-.76,2.04,0,.79.19,1.38.58,1.77s.89.58,1.52.58c.74,0,1.38-.24,1.91-.71Z"/>
        <path class="st14" d="M256.27,599.48v-18.34c0-.18.09-.27.27-.27h1.38c.18,0,.27.09.27.27v18.34c0,.18-.09.27-.27.27h-1.38c-.18,0-.27-.09-.27-.27Z"/>
        <path class="st14" d="M272.75,599.51l-.67-3.34s-.01-.06-.04-.08c-.03-.02-.06-.03-.09-.03h-4.88s-.07,0-.09.03c-.03.02-.04.04-.04.08l-.67,3.34c-.02.16-.12.24-.3.24h-1.38c-.09,0-.16-.03-.2-.08-.04-.05-.06-.13-.04-.22l4.04-18.34c.04-.16.13-.24.3-.24h1.62c.18,0,.28.08.3.24l4.1,18.34v.05c0,.16-.08.24-.24.24h-1.4c-.16,0-.26-.08-.3-.24ZM267.35,594.49h4.26c.05,0,.08-.04.08-.11l-2.16-10.6c-.02-.05-.04-.08-.05-.08s-.04.03-.05.08l-2.16,10.6c0,.07.03.11.08.11Z"/>
        <path class="st14" d="M276.67,598.93c-.75-.64-1.12-1.49-1.12-2.55v-.19c0-.18.09-.27.27-.27h1.29c.18,0,.27.09.27.27v.16c0,.58.21,1.06.63,1.46.42.4.98.59,1.66.59.65,0,1.17-.2,1.56-.59.4-.4.59-.9.59-1.51,0-.47-.13-.86-.38-1.17-.25-.31-.54-.56-.88-.74-.33-.18-.83-.41-1.5-.7-.7-.29-1.28-.57-1.74-.85-.46-.28-.85-.67-1.19-1.19-.33-.51-.5-1.16-.5-1.96,0-1.15.35-2.06,1.07-2.72.71-.66,1.67-1,2.87-1s2.19.34,2.91,1.03c.72.68,1.08,1.59,1.08,2.72v.08c0,.18-.09.27-.27.27h-1.24c-.18,0-.27-.09-.27-.27v-.16c0-.61-.2-1.11-.61-1.51-.4-.4-.93-.59-1.58-.59s-1.16.2-1.55.61c-.39.41-.58.9-.58,1.5,0,.43.12.79.35,1.09s.52.54.86.73c.34.19.82.42,1.43.69.74.32,1.34.63,1.82.92.48.29.89.69,1.25,1.21.36.52.54,1.17.54,1.94,0,1.11-.37,2-1.11,2.67-.74.67-1.73,1-2.99,1s-2.23-.32-2.98-.96Z"/>
        <path class="st14" d="M285.54,598.93c-.75-.64-1.12-1.49-1.12-2.55v-.19c0-.18.09-.27.27-.27h1.29c.18,0,.27.09.27.27v.16c0,.58.21,1.06.63,1.46.42.4.98.59,1.66.59.65,0,1.17-.2,1.56-.59.4-.4.59-.9.59-1.51,0-.47-.13-.86-.38-1.17-.25-.31-.54-.56-.88-.74-.33-.18-.83-.41-1.5-.7-.7-.29-1.28-.57-1.74-.85-.46-.28-.85-.67-1.19-1.19-.33-.51-.5-1.16-.5-1.96,0-1.15.35-2.06,1.07-2.72.71-.66,1.67-1,2.87-1s2.19.34,2.91,1.03c.72.68,1.08,1.59,1.08,2.72v.08c0,.18-.09.27-.27.27h-1.24c-.18,0-.27-.09-.27-.27v-.16c0-.61-.2-1.11-.61-1.51s-.93-.59-1.58-.59-1.16.2-1.55.61c-.39.41-.58.9-.58,1.5,0,.43.12.79.35,1.09s.52.54.86.73c.34.19.82.42,1.43.69.74.32,1.34.63,1.82.92.48.29.89.69,1.25,1.21.36.52.54,1.17.54,1.94,0,1.11-.37,2-1.11,2.67-.74.67-1.73,1-2.99,1s-2.23-.32-2.98-.96Z"/>
        <path class="st14" d="M294.57,583.19c-.28-.29-.42-.65-.42-1.08s.14-.81.42-1.09c.28-.28.64-.42,1.09-.42s.79.14,1.07.42c.28.28.42.64.42,1.09s-.14.79-.42,1.08c-.28.29-.63.43-1.07.43s-.81-.14-1.09-.43ZM294.72,599.48v-13.1c0-.18.09-.27.27-.27h1.38c.18,0,.27.09.27.27v13.1c0,.18-.09.27-.27.27h-1.38c-.18,0-.27-.09-.27-.27Z"/>
        <path class="st14" d="M300.16,598.93c-.75-.64-1.12-1.49-1.12-2.55v-.19c0-.18.09-.27.27-.27h1.29c.18,0,.27.09.27.27v.16c0,.58.21,1.06.63,1.46.42.4.98.59,1.66.59.65,0,1.17-.2,1.56-.59.4-.4.59-.9.59-1.51,0-.47-.13-.86-.38-1.17-.25-.31-.54-.56-.88-.74-.33-.18-.83-.41-1.5-.7-.7-.29-1.28-.57-1.74-.85-.46-.28-.85-.67-1.19-1.19-.33-.51-.5-1.16-.5-1.96,0-1.15.35-2.06,1.07-2.72.71-.66,1.67-1,2.87-1s2.19.34,2.91,1.03c.72.68,1.08,1.59,1.08,2.72v.08c0,.18-.09.27-.27.27h-1.24c-.18,0-.27-.09-.27-.27v-.16c0-.61-.2-1.11-.61-1.51s-.93-.59-1.58-.59-1.16.2-1.55.61c-.39.41-.58.9-.58,1.5,0,.43.12.79.35,1.09s.52.54.86.73c.34.19.82.42,1.43.69.74.32,1.34.63,1.82.92.48.29.89.69,1.25,1.21.36.52.54,1.17.54,1.94,0,1.11-.37,2-1.11,2.67-.74.67-1.73,1-2.99,1s-2.23-.32-2.98-.96Z"/>
        <path class="st14" d="M313.65,587.53h-2.05c-.07,0-.11.04-.11.11v8.25c0,.83.14,1.4.43,1.71.29.32.73.46,1.32.45h.27c.18,0,.27.09.27.27v1.16c0,.18-.09.27-.27.27h-.67c-1.06,0-1.87-.23-2.41-.69s-.82-1.33-.82-2.6v-8.82c0-.07-.04-.11-.11-.11h-1.05c-.18,0-.27-.09-.27-.27v-.89c0-.18.09-.27.27-.27h1.05c.07,0,.11-.04.11-.11v-3.02c0-.18.09-.27.27-.27h1.35c.18,0,.27.09.27.27v3.02c0,.07.04.11.11.11h2.05c.18,0,.27.09.27.27v.89c0,.18-.09.27-.27.27Z"/>
        <path class="st14" d="M322.79,587.12c.76.82,1.13,1.91,1.13,3.28v9.09c0,.18-.09.27-.27.27h-1.38c-.18,0-.27-.09-.27-.27v-.81s-.01-.06-.04-.07c-.03,0-.06,0-.09.04-.67.88-1.66,1.32-2.99,1.32-.99,0-1.85-.28-2.58-.85-.73-.57-1.09-1.57-1.09-3.01,0-1.53.44-2.65,1.32-3.36.88-.71,2.04-1.06,3.48-1.06h1.89c.07,0,.11-.04.11-.11v-1.05c0-.9-.21-1.62-.62-2.16-.41-.54-.97-.81-1.67-.81-.54,0-1,.18-1.39.54-.39.36-.62.82-.69,1.38,0,.18-.09.27-.27.27l-1.51-.03c-.09,0-.16-.03-.2-.08-.05-.05-.06-.12-.04-.19.09-1.06.52-1.92,1.29-2.58.77-.66,1.73-.98,2.86-.98,1.26,0,2.27.41,3.02,1.23ZM321.2,597.58c.54-.48.81-1.14.81-1.98v-2.27c0-.07-.04-.11-.11-.11h-1.91c-.86,0-1.55.23-2.05.69-.5.46-.76,1.14-.76,2.04,0,.79.19,1.38.58,1.77.39.39.89.58,1.52.58.74,0,1.38-.24,1.91-.71Z"/>
        <path class="st14" d="M333.78,587.05c.6.75.9,1.81.9,3.15v9.28c0,.18-.09.27-.27.27h-1.38c-.18,0-.27-.09-.27-.27v-9.11c0-.88-.19-1.56-.58-2.05-.39-.49-.92-.73-1.6-.73-.72,0-1.28.26-1.69.78-.4.52-.61,1.23-.61,2.13v8.98c0,.18-.09.27-.27.27h-1.38c-.18,0-.27-.09-.27-.27v-13.1c0-.18.09-.27.27-.27h1.38c.18,0,.27.09.27.27v.86s.02.06.05.08c.04.02.06,0,.08-.05.32-.45.73-.79,1.23-1.01.49-.22,1.02-.34,1.58-.34,1.1,0,1.95.38,2.55,1.13Z"/>
        <path class="st14" d="M338.12,598.83c-.76-.75-1.15-1.75-1.15-2.99v-5.83c0-1.22.39-2.21,1.16-2.98.77-.76,1.79-1.15,3.05-1.15.84,0,1.59.17,2.24.51.65.34,1.15.8,1.5,1.36.35.57.53,1.19.53,1.87v.27c0,.18-.09.27-.27.27l-1.38.05c-.18,0-.27-.09-.27-.27v-.19c0-.59-.22-1.11-.66-1.55-.44-.44-1-.66-1.69-.66s-1.24.24-1.66.72c-.42.48-.63,1.1-.63,1.87v5.55c0,.77.21,1.4.63,1.87.42.48.98.71,1.66.71s1.24-.22,1.69-.66c.44-.44.66-.96.66-1.55v-.19c0-.18.09-.27.27-.27l1.38.03c.18,0,.27.09.27.27v.3c0,1.08-.39,1.97-1.17,2.68-.78.71-1.81,1.06-3.09,1.06s-2.3-.38-3.06-1.13Z"/>
        <path class="st14" d="M355.45,593.65h-6.15c-.07,0-.11.04-.11.11v1.97c0,.76.21,1.37.63,1.85.42.48.98.71,1.66.71.57,0,1.07-.17,1.47-.53s.67-.8.8-1.36c.05-.16.15-.24.3-.24l1.35.05c.07,0,.13.03.19.08.05.05.07.13.05.22-.14,1.06-.58,1.9-1.31,2.52-.73.62-1.68.93-2.84.93-1.28,0-2.3-.38-3.06-1.13-.76-.75-1.15-1.75-1.15-2.99v-5.83c0-1.22.38-2.21,1.15-2.98.76-.76,1.78-1.15,3.06-1.15s2.32.38,3.09,1.15c.76.76,1.15,1.76,1.15,2.98v3.37c0,.18-.09.27-.27.27ZM349.82,588.28c-.42.48-.63,1.1-.63,1.87v1.81c0,.07.04.11.11.11h4.42c.07,0,.11-.03.11-.11v-1.81c0-.77-.22-1.4-.65-1.87-.43-.48-1-.72-1.7-.72s-1.24.24-1.66.72Z"/>
      </g>
    </g>
    <image width="842" height="873" transform="translate(391.09 561.25) scale(.16)" xlink:href="templates/promo-bg.jpg"/>
  </g>
</svg>